<svg xmlns="http://www.w3.org/2000/svg" width="103.609" height="114" viewBox="0 0 103.609 114"><g transform="translate(-598.976 -167.773)"><path d="M662.548,167.778a28.652,28.652,0,0,1,12.645,54.178c-1,.515-2.105.806-1.936,2.393a2.54,2.54,0,0,0,2.012,2.377,7.6,7.6,0,0,1,4.432,4.307c.813,1.834,1.7,1.422,2.614.194a14.207,14.207,0,0,0,1.807-2.891c1.237-2.945,3.74-4.067,6.529-4.94,1.288-.4,1.967-.094,2.44,1.148q4.6,12.088,9.276,24.148c.546,1.4.04,2-1.247,2.578-2.691,1.208-5.307,1.9-8.167.517a12.65,12.65,0,0,0-3.288-.895c-1.3-.231-1.953.165-1.739,1.73.794,5.812-.784,8.488-6.165,10.562q-22.656,8.729-45.335,17.407c-6.875,2.627-10.588.958-13.226-5.828a1.8,1.8,0,0,1-.089-.227c-.856-3.778-2.9-5.672-6.977-6.754-10.5-2.785-17.706-13.558-17.127-24.266a24.574,24.574,0,0,1,20.178-23.173,5.068,5.068,0,0,0,3.669-2.384c3.273-4.954,6.638-9.85,10.025-14.727a4.96,4.96,0,0,0,.785-3.667A28.68,28.68,0,0,1,662.548,167.778ZM674.414,234.2c.177,3.2-1.178,5.054-3.565,5.268-2.426.218-4.169-1.337-4.529-4.067-.171-1.291-.339-2.584-.43-3.882-.087-1.244-.587-1.469-1.737-1.046-5.485,2.018-11.082,3.718-14.427,9.226a8.288,8.288,0,0,0-1.574,4.618,24.58,24.58,0,0,1-19.695,24.324c-1.667.342-4.228-.537-4.794,1.2-.439,1.346.935,3.315,1.58,4.978,1.793,4.626,4.878,6.17,9.453,4.433q23.618-8.968,47.167-18.118c4.013-1.557,5.475-4.838,3.98-8.887-2.451-6.64-5.043-13.229-7.589-19.834a6.66,6.66,0,0,0-2.663-3.4c-.408-.254-.849-.62-1.343-.362-.526.273-.384.844-.334,1.31C674.078,231.494,674.274,233.028,674.414,234.2Zm-12.366-10.987a26.788,26.788,0,1,0-26.67-27.02A26.833,26.833,0,0,0,662.048,223.208Zm-38.981,43.963a22.708,22.708,0,1,0-22.1-23.156A22.767,22.767,0,0,0,623.066,267.171Zm36.064-41.6c-.019-.8-.693-.7-1.219-.8-11.061-2.018-18.689-8.211-22.728-18.735-.543-1.414-1.013-1.465-1.854-.207-2.618,3.917-5.3,7.792-7.939,11.695-1.5,2.214-1.481,2.2,1.286,2.579a24.639,24.639,0,0,1,17.366,10.584c1.01,1.411,1.129,3.974,2.969,4.112,1.691.128,3.573-.961,5.218-1.811,3.056-1.58,4.586-4.715,6.811-7.146C659.088,225.79,659.091,225.694,659.13,225.574Zm31.448-.075c-1.54.01-2.5,1.1-2,2.425,2.675,7.059,5.419,14.093,8.077,21.159.512,1.361,1.235,1.421,2.422.956s1.4-1.082.95-2.246c-2.744-7.033-5.434-14.087-8.15-21.131C691.649,226.068,691.47,225.373,690.578,225.5Zm4.074,23.58c-.122-.337-.283-.8-.455-1.25q-1.465-3.862-2.939-7.723c-1.308-3.4-2.615-6.807-3.962-10.194-.2-.493-.583-1.643-1.159-.884-1.053,1.385-2.841,2.672-2.013,4.854q2.627,6.931,5.347,13.825c.432,1.1,3.607,2.618,4.7,2.372C694.7,249.96,694.784,249.657,694.652,249.079Zm-22.145-14.444c-.318-2.988-.621-5.977-.963-8.962-.095-.827.045-2.063-1.4-1.63-1.165.349-3.094-.111-2.888,2.1.286,3.072.612,6.142,1,9.2.169,1.34.9,2.373,2.41,2.183C672.3,237.322,672.65,236.079,672.507,234.635Zm-14.48-4.528.333.55c1.718-.642,3.447-1.256,5.149-1.938.853-.343,2.029-.464,1.874-1.83-.078-.677.112-1.6-.876-1.774a2.863,2.863,0,0,0-2.907.757C660.4,227.277,659.216,228.695,658.026,230.107Zm29.524,17.925c-1.663-4.283-3.4-8.757-5.146-13.224a.6.6,0,0,0-.781-.4.639.639,0,0,0-.24.853q2.532,6.607,5.1,13.2c.109.282.3.619.7.53S687.619,248.581,687.551,248.032Zm-37.62-11.88c-1.262.341-2.422.167-2.528,1.637a1.2,1.2,0,0,0,.41.769C648.906,238.284,649.382,237.431,649.931,236.152Z" transform="translate(0 0)" fill="#fc3"/><path d="M719.909,302.407c-.106.617-.564.829-1.006,1-1.874.734-3.758,1.439-5.638,2.158-.643.246-1.34.408-1.636-.4-.3-.824.43-1.137,1.013-1.366q2.807-1.1,5.653-2.112C719.026,301.433,719.746,301.407,719.909,302.407Z" transform="translate(-39.257 -46.644)" fill="#fc3"/><path d="M705.506,308.757c-.637,1.262-1.826,1.422-2.894,1.674-.627.147-1.269-.342-.983-.985.522-1.169,1.816-1.241,2.894-1.506C705.1,307.8,705.322,308.318,705.506,308.757Z" transform="translate(-35.77 -48.867)" fill="#fc3"/><path d="M694.529,311.687c.792-.074,1.379.194,1.2.888-.315,1.245-1.6,1.185-2.541,1.52-.589.209-1.325-.008-1.208-.722C692.22,311.937,693.736,312.223,694.529,311.687Z" transform="translate(-32.427 -50.178)" fill="#fc3"/><path d="M676.18,196.932a22.81,22.81,0,0,1-13.369-4.866c-1.168-.875-1.579-1.724-.725-3.06a38.144,38.144,0,0,1,5.879-7.117,1.883,1.883,0,0,1,2.952-.029,24.2,24.2,0,0,1,7.712,12.972C679.068,196.7,678.248,197.215,676.18,196.932Zm-1.465-2.021c1.749.116,1.9-.061,1.455-1.725a9.437,9.437,0,0,0-.468-1.385c-.784-1.765-1.282-4.562-3.005-4.682-2.008-.14-3.093,2.509-4.33,4.191-.9,1.226-.35,1.925.89,2.348A26.716,26.716,0,0,0,674.715,194.911Zm-9.17-3.454c.227-.111.529-.156.634-.324a35.362,35.362,0,0,1,4.619-5.641c.626-.658-.134-1.155-.557-1.617-.58-.631-1.137-.459-1.675.067a29.379,29.379,0,0,0-4.334,5.257C663.33,190.624,664.582,190.973,665.545,191.458Z" transform="translate(-21.848 -4.668)" fill="#fc3"/><path d="M714.988,203.591a31.669,31.669,0,0,1-7.321-1.086c-1.553-.4-2.009-1.127-1.085-2.611a24.389,24.389,0,0,1,11.185-9.768c1.463-.638,2.451-.482,3.18,1.009a41.762,41.762,0,0,1,3.131,8.162c.411,1.637-.072,2.649-1.791,3.051C719.76,202.938,717.265,203.693,714.988,203.591Zm-.543-1.785c3.4-.029,3.649-.332,2.593-3.494-.333-1-.836-1.938-1.252-2.909-.555-1.295-1.338-1.53-2.418-.555a30.122,30.122,0,0,0-3.966,4.3c-.819,1.1-.7,1.773.708,2.009C711.551,201.4,713,201.59,714.446,201.806Zm7.6-2.755a36.731,36.731,0,0,0-2.437-6.343c-.421-.84-1.026-.9-1.807-.474-.75.412-1.122.89-.631,1.747a21.733,21.733,0,0,1,2.248,5.886,1.018,1.018,0,0,0,1.426.868C721.583,200.53,722.281,200.293,722.048,199.051Z" transform="translate(-37.356 -7.671)" fill="#fc3"/><path d="M658.115,216.415c-.189-1.636.524-2.087,1.439-2.41a23.922,23.922,0,0,1,15.114-.334c1.6.47,1.814,1.318.946,2.723a23.987,23.987,0,0,1-11.045,9.626c-1.455.636-2.4.522-3.195-.965A37.536,37.536,0,0,1,658.115,216.415Zm15.338-.336a.773.773,0,0,0-.584-.867,18.648,18.648,0,0,0-7.242-.647.97.97,0,0,0-.892.978c-.134,1.043,1.734,6.1,2.514,6.211,2.042.287,2.742-1.658,3.967-2.714a9,9,0,0,0,1.258-1.488C672.856,217.041,673.184,216.488,673.453,216.079Zm-9.787,8.128a1.438,1.438,0,0,0,1.42-2.084,22.091,22.091,0,0,1-2.177-5.665c-.184-.91-.662-1.248-1.555-1s-1.433.612-1.1,1.721a37.09,37.09,0,0,0,2.372,6.125C662.848,223.741,663.083,224.178,663.666,224.206Z" transform="translate(-20.611 -15.634)" fill="#fc3"/><path d="M693.194,235.862c-.038,5.3-.217,5.442-5.584,4.811a31.755,31.755,0,0,1-5.956-1.177,1.907,1.907,0,0,1-1.51-2.543,24.7,24.7,0,0,1,7.012-13.091c1.455-1.449,2.283-1.013,3.094.584A22.947,22.947,0,0,1,693.194,235.862Zm-4.146-1.776c2.15.5,2.315-.692,1.962-2.216a25.076,25.076,0,0,0-.981-3.248c-.394-1.037-.52-2.631-1.635-2.784-1.088-.148-1.715,1.317-2.333,2.219-.941,1.372-2.88,2.89-2.209,4.325C684.7,234.2,687.258,233.732,689.048,234.086Zm-.451,4.86c1.219-.092,2.445.489,2.6-1.251.157-1.785-1.033-1.6-2.175-1.749a35.464,35.464,0,0,1-4.742-.914c-1.086-.3-1.661-.126-1.963,1.011-.32,1.208.082,1.854,1.287,2.057C685.351,238.395,687.1,238.692,688.6,238.946Z" transform="translate(-28.277 -19.251)" fill="#fc3"/><path d="M690.149,178.879c.049-5.491.3-5.711,5.611-5.065a33.108,33.108,0,0,1,5.953,1.212A1.933,1.933,0,0,1,703.2,177.6a24.719,24.719,0,0,1-7.041,13.083c-1.245,1.224-2.113,1.254-2.972-.384A22.693,22.693,0,0,1,690.149,178.879Zm4.392,1.1c-2.1-.345-2.788.537-2.263,2.491a22.651,22.651,0,0,0,.786,2.816c.505,1.223.538,3.169,1.936,3.339,1.2.146,1.923-1.581,2.623-2.64.958-1.449,2.9-3.055,2.06-4.625C698.814,179.737,696.309,180.278,694.54,179.982Zm-.078-4.416c-1.248.055-2.246-.2-2.347,1.175-.1,1.322.75,1.409,1.72,1.4a19.356,19.356,0,0,1,5.518.7c.774.219,1.445.245,1.7-.753.268-1.064-.27-1.493-1.216-1.646C697.92,176.132,696.007,175.818,694.462,175.565Z" transform="translate(-31.787 -2.018)" fill="#fc3"/><path d="M707.569,218.219c3.847.012,8.2,1.8,12.214,4.618,1.482,1.04,1.8,2.065.759,3.632a44.9,44.9,0,0,1-5.415,6.544c-1.231,1.255-2.262,1.164-3.517-.014a24.016,24.016,0,0,1-7.287-12.383C703.822,218.409,704.12,218.06,707.569,218.219Zm7.354,4.594c.085-.744-.467-.947-1-1.17a20.669,20.669,0,0,0-6.131-1.473c-1.277-.121-1.6.455-1.2,1.609a23.99,23.99,0,0,0,2.39,5.317c.345.528.662,1.168,1.474,1.054C711.366,228.024,714.875,223.812,714.923,222.813Zm2.235.852c-.144.083-.43.152-.539.33a29.359,29.359,0,0,1-4.592,5.61c-.661.644.1,1.145.52,1.6a1.025,1.025,0,0,0,1.671.053,28.973,28.973,0,0,0,4.428-5.434C719.173,224.969,718.212,223.6,717.158,223.665Z" transform="translate(-36.668 -17.579)" fill="#fc3"/><path d="M693.485,213.9a4.287,4.287,0,0,1-4.323-4.057,4.214,4.214,0,1,1,4.323,4.057ZM693.4,207.4a2.166,2.166,0,0,0-2.244,2.317,2.056,2.056,0,0,0,2.095,2.2,2.1,2.1,0,0,0,2.373-2.171C695.68,208.316,694.8,207.562,693.4,207.4Z" transform="translate(-31.446 -13.146)" fill="#fc3"/><path d="M612.49,286a21.82,21.82,0,0,1,5.99.929c1.392.388,1.893,1.038,1.021,2.455a20.786,20.786,0,0,1-9.542,8.363c-1.243.547-2.128.5-2.817-.81a33.21,33.21,0,0,1-2.827-7.231,1.869,1.869,0,0,1,1.493-2.56A20.265,20.265,0,0,1,612.49,286Zm.474,1.89c-2.838-.1-3.168.323-2.334,2.725.16.459.349.909.547,1.354,1.072,2.405,1.458,2.515,3.343.574,1.037-1.068,3-2.166,2.451-3.58C616.435,287.578,614.217,288.21,612.964,287.894Zm-2.586,6.716a20.306,20.306,0,0,1-2.191-5.421c-.127-.41-.635-.457-1.054-.36s-.787.376-.73.825a15.834,15.834,0,0,0,2.193,5.866.749.749,0,0,0,1.072.2A1.18,1.18,0,0,0,610.377,294.61Z" transform="translate(-1.824 -41.222)" fill="#fc3"/><path d="M619.787,272.968a20.373,20.373,0,0,1-11.416-4.192c-1.27-.952-1.37-1.828-.528-3.057a36.664,36.664,0,0,1,4.833-5.788c1.054-1.011,1.885-.912,2.921.034a20.974,20.974,0,0,1,6.4,10.718C622.415,272.393,621.96,273.219,619.787,272.968Zm-1.5-2.024c1.515.19,1.716-.513,1.239-1.724-.266-.677-.488-1.372-.784-2.036-1.5-3.358-2.169-3.434-4.454-.523-1.878,2.392-1.732,2.88,1.159,3.666C616.384,270.581,617.342,270.742,618.289,270.944Zm-7.556-3.052c.2-.108.49-.167.605-.341a29.8,29.8,0,0,1,3.678-4.476c.439-.447.109-.907-.277-1.241a.883.883,0,0,0-1.3.023,20.283,20.283,0,0,0-3.649,4.491C609.251,267.281,609.962,267.626,610.734,267.892Z" transform="translate(-2.902 -31.885)" fill="#fc3"/><path d="M645.881,290.721a20.642,20.642,0,0,1,11.27,4.06c1.333.946,1.554,1.9.653,3.258a36.893,36.893,0,0,1-4.634,5.606,1.92,1.92,0,0,1-3.111.051,20.621,20.621,0,0,1-6.266-10.474C643.264,291.044,643.67,290.574,645.881,290.721Zm1.269,2.041c-1.23-.17-1.415.4-1.079,1.432a19.529,19.529,0,0,0,1.891,4.214c.524.851,1.155,1.129,1.93.282,1.088-1.189,2.833-2.343,2.614-3.9s-2.36-1.271-3.679-1.734A9.816,9.816,0,0,0,647.15,292.762Zm7.814,3.083c-.167.064-.363.078-.451.183-1.295,1.534-2.59,3.068-3.851,4.629-.291.361-.113.767.19,1.079.361.37.771.632,1.256.221a18.39,18.39,0,0,0,3.832-4.635C656.461,296.454,655.74,296.039,654.964,295.845Z" transform="translate(-15.555 -42.863)" fill="#fc3"/><path d="M634.45,306.728a6.447,6.447,0,0,1,0,.833c-.155,2.747-.549,3.157-3.238,2.873-2.1-.222-4.181-.605-6.257-.989-1.583-.293-2.05-1.241-1.725-2.853a20.788,20.788,0,0,1,5.827-10.778c1.321-1.331,2.19-1.071,2.972.466A19.5,19.5,0,0,1,634.45,306.728Zm-3.754-2.382c1.637.245,2.087-.48,1.643-1.955a17.987,17.987,0,0,0-.706-2.317c-.379-.832-.348-2.182-1.448-2.27-.88-.07-1.371,1.047-1.843,1.766-.728,1.108-2.3,2.225-1.611,3.532S629.309,304.088,630.7,304.346Zm-.335,4.209c1.107-.027,2.042.2,2.173-1,.135-1.239-.813-1.148-1.6-1.278-1.275-.208-2.551-.418-3.808-.709-.868-.2-1.6-.338-1.892.8-.311,1.226.614,1.343,1.383,1.509C627.953,308.163,629.315,308.368,630.361,308.555Z" transform="translate(-8.422 -44.347)" fill="#fc3"/><path d="M631.631,257.531c0-.435,0-.6,0-.761.062-3.813.338-4.125,4.037-3.793,1.773.159,3.522.595,5.287.867,1.928.3,2.276,1.413,1.9,3.165a20.952,20.952,0,0,1-5.793,10.535c-1.3,1.322-2.138,1.122-2.934-.467A19.529,19.529,0,0,1,631.631,257.531Zm4.268,1.022c-1.054.136-2.341-.345-2.264,1.44.068,1.588,1.668,5.592,2.334,5.6.732.006,4.091-4.355,3.83-5.363C639.245,258.091,637.174,259.068,635.9,258.553Zm3.648-1.3c.6.127,1.2.13,1.344-.606s-.448-.973-1.013-1.118a19.926,19.926,0,0,0-5.03-.718c-.608,0-1.15.143-1.193.894s.453.953,1.087.973A18.505,18.505,0,0,1,639.547,257.258Z" transform="translate(-11.382 -29.676)" fill="#fc3"/><path d="M652.6,278.633a22.02,22.02,0,0,1-5.745-.9c-1.566-.378-1.975-1.151-1.056-2.616a20.544,20.544,0,0,1,9.6-8.264,1.873,1.873,0,0,1,2.782.982,35.019,35.019,0,0,1,2.679,7.024c.347,1.342.061,2.184-1.351,2.58A21.4,21.4,0,0,1,652.6,278.633Zm-.375-1.877c2.807.084,3.156-.357,2.371-2.763a12.43,12.43,0,0,0-.535-1.363c-1.1-2.389-1.468-2.483-3.365-.541-1.048,1.074-2.982,2.216-2.479,3.588C648.739,277.086,650.975,276.413,652.23,276.756Zm6.588-2.2a23.392,23.392,0,0,0-1.935-5.079c-.312-.54-.728-.892-1.388-.531a.947.947,0,0,0-.468,1.415,21.4,21.4,0,0,1,1.833,4.744.936.936,0,0,0,1.31.7C658.719,275.635,658.934,275.252,658.818,274.555Z" transform="translate(-16.16 -34.458)" fill="#fc3"/><path d="M638.6,283.58a3.806,3.806,0,0,1-3.764,3.692,3.7,3.7,0,1,1,.013-7.391A3.785,3.785,0,0,1,638.6,283.58Zm-2.016.145c-.019-1.062-.483-1.8-1.524-1.9a1.668,1.668,0,0,0-2.01,1.623,1.773,1.773,0,0,0,3.534.279Z" transform="translate(-11.205 -39.092)" fill="#fc3"/></g></svg>