<?xml version="1.0" encoding="utf-8"?>
<!-- Generator: Adobe Illustrator 22.0.0, SVG Export Plug-In . SVG Version: 6.00 Build 0)  -->
<svg version="1.1" id="Layer_1" xmlns="http://www.w3.org/2000/svg" xmlns:xlink="http://www.w3.org/1999/xlink" x="0px" y="0px"
	 viewBox="0 0 103.6 114" style="enable-background:new 0 0 103.6 114;" xml:space="preserve">
<style type="text/css">
	.st0{fill:#FFFFFF;}
</style>
<g transform="translate(-598.976 -167.773)">
	<path class="st0" d="M662.5,167.8c15.8,0.2,28.5,13.2,28.3,29c-0.1,10.6-6.2,20.3-15.6,25.2c-1,0.5-2.1,0.8-1.9,2.4
		c0,1.2,0.9,2.1,2,2.4c2,0.7,3.6,2.3,4.4,4.3c0.8,1.8,1.7,1.4,2.6,0.2c0.7-0.9,1.3-1.9,1.8-2.9c1.2-2.9,3.7-4.1,6.5-4.9
		c1.3-0.4,2-0.1,2.4,1.1c3.1,8.1,6.2,16.1,9.3,24.1c0.5,1.4,0,2-1.2,2.6c-2.7,1.2-5.3,1.9-8.2,0.5c-1.1-0.4-2.2-0.7-3.3-0.9
		c-1.3-0.2-2,0.2-1.7,1.7c0.8,5.8-0.8,8.5-6.2,10.6c-15.1,5.8-30.2,11.6-45.3,17.4c-6.9,2.6-10.6,1-13.2-5.8c0-0.1-0.1-0.1-0.1-0.2
		c-0.9-3.8-2.9-5.7-7-6.8c-10.5-2.8-17.7-13.6-17.1-24.3c0.5-11.5,8.9-21.1,20.2-23.2c1.5-0.2,2.9-1.1,3.7-2.4
		c3.3-5,6.6-9.9,10-14.7c0.7-1.1,1-2.4,0.8-3.7c-1.7-15.7,9.7-29.9,25.4-31.6C660.2,167.8,661.4,167.8,662.5,167.8z M674.4,234.2
		c0.2,3.2-1.2,5.1-3.6,5.3c-2.4,0.2-4.2-1.3-4.5-4.1c-0.2-1.3-0.3-2.6-0.4-3.9c-0.1-1.2-0.6-1.5-1.7-1c-5.5,2-11.1,3.7-14.4,9.2
		c-1,1.3-1.5,3-1.6,4.6c0.1,11.8-8.1,22-19.7,24.3c-1.7,0.3-4.2-0.5-4.8,1.2c-0.4,1.3,0.9,3.3,1.6,5c1.8,4.6,4.9,6.2,9.5,4.4
		c15.7-6,31.5-12,47.2-18.1c4-1.6,5.5-4.8,4-8.9c-2.5-6.6-5-13.2-7.6-19.8c-0.5-1.4-1.4-2.6-2.7-3.4c-0.4-0.3-0.8-0.6-1.3-0.4
		c-0.5,0.3-0.4,0.8-0.3,1.3C674.1,231.5,674.3,233,674.4,234.2z M662,223.2c14.8,0.1,26.8-11.9,26.9-26.7
		c0.1-14.8-11.9-26.8-26.7-26.9c-14.7-0.1-26.8,11.8-26.9,26.6C635.3,211,647.2,223.1,662,223.2C662,223.2,662,223.2,662,223.2
		L662,223.2z M623.1,267.2c12.5,0.3,23-9.6,23.3-22.1c0.3-12.5-9.6-23-22.1-23.3c-12.5-0.3-23,9.6-23.3,22.1c0,0,0,0.1,0,0.1
		C600.8,256.5,610.6,266.8,623.1,267.2L623.1,267.2z M659.1,225.6c0-0.8-0.7-0.7-1.2-0.8c-11.1-2-18.7-8.2-22.7-18.7
		c-0.5-1.4-1-1.5-1.9-0.2c-2.6,3.9-5.3,7.8-7.9,11.7c-1.5,2.2-1.5,2.2,1.3,2.6c7,0.9,13.4,4.7,17.4,10.6c1,1.4,1.1,4,3,4.1
		c1.7,0.1,3.6-1,5.2-1.8c3.1-1.6,4.6-4.7,6.8-7.1C659.1,225.8,659.1,225.7,659.1,225.6L659.1,225.6z M690.6,225.5
		c-1.5,0-2.5,1.1-2,2.4c2.7,7.1,5.4,14.1,8.1,21.2c0.5,1.4,1.2,1.4,2.4,1s1.4-1.1,1-2.2c-2.7-7-5.4-14.1-8.2-21.1
		C691.6,226.1,691.5,225.4,690.6,225.5L690.6,225.5z M694.7,249.1c-0.1-0.3-0.3-0.8-0.5-1.3c-1-2.6-2-5.1-2.9-7.7
		c-1.3-3.4-2.6-6.8-4-10.2c-0.2-0.5-0.6-1.6-1.2-0.9c-1.1,1.4-2.8,2.7-2,4.9c1.8,4.6,3.5,9.2,5.3,13.8c0.4,1.1,3.6,2.6,4.7,2.4
		C694.7,250,694.8,249.7,694.7,249.1L694.7,249.1z M672.5,234.6c-0.3-3-0.6-6-1-9c-0.1-0.8,0-2.1-1.4-1.6c-1.2,0.3-3.1-0.1-2.9,2.1
		c0.3,3.1,0.6,6.1,1,9.2c0.2,1.3,0.9,2.4,2.4,2.2C672.3,237.3,672.7,236.1,672.5,234.6L672.5,234.6z M658,230.1l0.3,0.6
		c1.7-0.6,3.4-1.3,5.1-1.9c0.9-0.3,2-0.5,1.9-1.8c-0.1-0.7,0.1-1.6-0.9-1.8c-1-0.3-2.2,0-2.9,0.8C660.4,227.3,659.2,228.7,658,230.1
		L658,230.1z M687.6,248c-1.7-4.3-3.4-8.8-5.1-13.2c-0.1-0.3-0.4-0.5-0.7-0.4c0,0,0,0,0,0c-0.3,0.2-0.4,0.6-0.2,0.9
		c1.7,4.4,3.4,8.8,5.1,13.2c0.1,0.3,0.3,0.6,0.7,0.5S687.6,248.6,687.6,248L687.6,248z M649.9,236.2c-1.3,0.3-2.4,0.2-2.5,1.6
		c0,0.3,0.2,0.6,0.4,0.8C648.9,238.3,649.4,237.4,649.9,236.2L649.9,236.2z"/>
	<path class="st0" d="M680.7,255.8c-0.1,0.6-0.6,0.8-1,1c-1.9,0.7-3.8,1.4-5.6,2.2c-0.6,0.2-1.3,0.4-1.6-0.4c-0.3-0.8,0.4-1.1,1-1.4
		c1.9-0.7,3.8-1.4,5.7-2.1C679.8,254.8,680.5,254.8,680.7,255.8z"/>
	<path class="st0" d="M669.7,259.9c-0.6,1.3-1.8,1.4-2.9,1.7c-0.6,0.1-1.3-0.3-1-1c0.5-1.2,1.8-1.2,2.9-1.5
		C669.3,258.9,669.6,259.5,669.7,259.9z"/>
	<path class="st0" d="M662.1,261.5c0.8-0.1,1.4,0.2,1.2,0.9c-0.3,1.2-1.6,1.2-2.5,1.5c-0.6,0.2-1.3,0-1.2-0.7
		C659.8,261.8,661.3,262,662.1,261.5z"/>
	<path class="st0" d="M654.3,192.3c-4.9-0.2-9.5-1.9-13.4-4.9c-1.2-0.9-1.6-1.7-0.7-3.1c1.7-2.6,3.6-5,5.9-7.1
		c0.6-0.8,1.8-1,2.6-0.3c0.1,0.1,0.2,0.2,0.3,0.3c3.9,3.4,6.6,7.9,7.7,13C657.2,192,656.4,192.5,654.3,192.3z M652.9,190.2
		c1.7,0.1,1.9-0.1,1.5-1.7c-0.1-0.5-0.3-0.9-0.5-1.4c-0.8-1.8-1.3-4.6-3-4.7c-2-0.1-3.1,2.5-4.3,4.2c-0.9,1.2-0.3,1.9,0.9,2.3
		C649.2,189.6,651,190,652.9,190.2L652.9,190.2z M643.7,186.8c0.2-0.1,0.5-0.2,0.6-0.3c1.3-2,2.9-3.9,4.6-5.6
		c0.6-0.7-0.1-1.2-0.6-1.6c-0.6-0.6-1.1-0.5-1.7,0.1c-1.6,1.6-3.1,3.3-4.3,5.3C641.5,186,642.7,186.3,643.7,186.8L643.7,186.8z"/>
	<path class="st0" d="M677.6,195.9c-2.5-0.1-4.9-0.4-7.3-1.1c-1.6-0.4-2-1.1-1.1-2.6c2.6-4.3,6.5-7.8,11.2-9.8
		c1.5-0.6,2.5-0.5,3.2,1c1.3,2.6,2.4,5.3,3.1,8.2c0.4,1.6-0.1,2.6-1.8,3.1C682.4,195.3,679.9,196,677.6,195.9z M677.1,194.1
		c3.4,0,3.6-0.3,2.6-3.5c-0.3-1-0.8-1.9-1.3-2.9c-0.6-1.3-1.3-1.5-2.4-0.6c-1.5,1.3-2.8,2.7-4,4.3c-0.8,1.1-0.7,1.8,0.7,2
		C674.2,193.7,675.6,193.9,677.1,194.1L677.1,194.1z M684.7,191.4c-0.6-2.2-1.4-4.3-2.4-6.3c-0.4-0.8-1-0.9-1.8-0.5
		c-0.8,0.4-1.1,0.9-0.6,1.7c1,1.8,1.8,3.8,2.2,5.9c0,0.6,0.5,1,1.1,1c0.1,0,0.2,0,0.3-0.1C684.2,192.9,684.9,192.6,684.7,191.4
		L684.7,191.4z"/>
	<path class="st0" d="M637.5,200.8c-0.2-1.6,0.5-2.1,1.4-2.4c4.9-1.7,10.2-1.9,15.1-0.3c1.6,0.5,1.8,1.3,0.9,2.7
		c-2.6,4.3-6.4,7.6-11,9.6c-1.5,0.6-2.4,0.5-3.2-1C639.3,206.7,638.2,203.8,637.5,200.8z M652.8,200.4c0.1-0.4-0.2-0.8-0.6-0.9
		c-2.3-0.7-4.8-0.9-7.2-0.6c-0.5,0-0.9,0.5-0.9,1c-0.1,1,1.7,6.1,2.5,6.2c2,0.3,2.7-1.7,4-2.7c0.5-0.4,0.9-0.9,1.3-1.5
		C652.2,201.4,652.6,200.9,652.8,200.4z M643.1,208.6c0.8,0.1,1.5-0.5,1.6-1.3c0-0.3,0-0.5-0.1-0.8c-1-1.8-1.7-3.7-2.2-5.7
		c-0.2-0.9-0.7-1.2-1.6-1s-1.4,0.6-1.1,1.7c0.6,2.1,1.4,4.2,2.4,6.1C642.2,208.1,642.5,208.5,643.1,208.6L643.1,208.6z"/>
	<path class="st0" d="M664.9,216.6c0,5.3-0.2,5.4-5.6,4.8c-2-0.2-4-0.6-6-1.2c-1-0.2-1.8-1.1-1.6-2.2c0-0.1,0.1-0.3,0.1-0.4
		c0.9-5,3.4-9.5,7-13.1c1.5-1.4,2.3-1,3.1,0.6C663.9,208.7,664.9,212.6,664.9,216.6z M660.8,214.8c2.2,0.5,2.3-0.7,2-2.2
		c-0.3-1.1-0.6-2.2-1-3.2c-0.4-1-0.5-2.6-1.6-2.8c-1.1-0.1-1.7,1.3-2.3,2.2c-0.9,1.4-2.9,2.9-2.2,4.3
		C656.4,214.9,659,214.5,660.8,214.8z M660.3,219.7c1.2-0.1,2.4,0.5,2.6-1.3c0.2-1.8-1-1.6-2.2-1.7c-1.6-0.2-3.2-0.5-4.7-0.9
		c-1.1-0.3-1.7-0.1-2,1c-0.3,1.2,0.1,1.9,1.3,2.1C657.1,219.1,658.8,219.4,660.3,219.7L660.3,219.7z"/>
	<path class="st0" d="M658.4,176.9c0-5.5,0.3-5.7,5.6-5.1c2,0.2,4,0.6,6,1.2c1.1,0.2,1.8,1.2,1.6,2.2c0,0.1-0.1,0.2-0.1,0.3
		c-0.9,5-3.4,9.5-7,13.1c-1.2,1.2-2.1,1.3-3-0.4C659.4,184.8,658.3,180.9,658.4,176.9z M662.8,178c-2.1-0.3-2.8,0.5-2.3,2.5
		c0.2,1,0.5,1.9,0.8,2.8c0.5,1.2,0.5,3.2,1.9,3.3c1.2,0.1,1.9-1.6,2.6-2.6c1-1.4,2.9-3.1,2.1-4.6C667,177.7,664.5,178.3,662.8,178
		L662.8,178z M662.7,173.5c-1.2,0.1-2.2-0.2-2.3,1.2c-0.1,1.3,0.8,1.4,1.7,1.4c1.9,0,3.7,0.2,5.5,0.7c0.8,0.2,1.4,0.2,1.7-0.8
		c0.3-1.1-0.3-1.5-1.2-1.6C666.1,174.1,664.2,173.8,662.7,173.5L662.7,173.5z"/>
	<path class="st0" d="M670.9,200.6c3.8,0,8.2,1.8,12.2,4.6c1.5,1,1.8,2.1,0.8,3.6c-1.6,2.3-3.4,4.5-5.4,6.5c-1.2,1.3-2.3,1.2-3.5,0
		c-3.6-3.3-6.2-7.6-7.3-12.4C667.2,200.8,667.5,200.5,670.9,200.6z M678.3,205.2c0.1-0.7-0.5-0.9-1-1.2c-2-0.8-4-1.3-6.1-1.5
		c-1.3-0.1-1.6,0.5-1.2,1.6c0.6,1.9,1.4,3.6,2.4,5.3c0.3,0.5,0.7,1.2,1.5,1.1C674.7,210.4,678.2,206.2,678.3,205.2L678.3,205.2z
		 M680.5,206.1c-0.1,0.1-0.4,0.2-0.5,0.3c-1.3,2.1-2.8,3.9-4.6,5.6c-0.7,0.6,0.1,1.1,0.5,1.6c0.3,0.5,0.9,0.6,1.4,0.3
		c0.1-0.1,0.2-0.1,0.3-0.2c1.7-1.6,3.2-3.5,4.4-5.4C682.5,207.4,681.5,206,680.5,206.1L680.5,206.1z"/>
	<path class="st0" d="M662,200.8c-2.3,0-4.2-1.8-4.3-4.1c-0.1-2.3,1.7-4.3,4.1-4.4s4.3,1.7,4.4,4.1S664.4,200.7,662,200.8
		C662.1,200.8,662.1,200.8,662,200.8z M662,194.3c-1.2,0-2.2,0.9-2.2,2.1c0,0.1,0,0.2,0,0.2c-0.1,1.1,0.8,2.1,1.9,2.2
		c0.1,0,0.1,0,0.2,0c1.1,0.2,2.2-0.7,2.4-1.8c0-0.1,0-0.2,0-0.4C664.2,195.2,663.4,194.4,662,194.3z"/>
	<path class="st0" d="M610.7,244.8c2,0,4,0.3,6,0.9c1.4,0.4,1.9,1,1,2.5c-2.2,3.7-5.6,6.6-9.5,8.4c-1.2,0.5-2.1,0.5-2.8-0.8
		c-1.2-2.3-2.2-4.7-2.8-7.2c-0.4-1,0.1-2,1-2.4c0.2-0.1,0.3-0.1,0.5-0.1C606.1,245.2,608.4,244.8,610.7,244.8z M611.1,246.7
		c-2.8-0.1-3.2,0.3-2.3,2.7c0.2,0.5,0.3,0.9,0.5,1.4c1.1,2.4,1.5,2.5,3.3,0.6c1-1.1,3-2.2,2.5-3.6
		C614.6,246.4,612.4,247,611.1,246.7L611.1,246.7z M608.6,253.4c-1-1.7-1.7-3.5-2.2-5.4c-0.1-0.4-0.6-0.5-1.1-0.4s-0.8,0.4-0.7,0.8
		c0.3,2.1,1.1,4.1,2.2,5.9c0.2,0.3,0.7,0.4,1,0.2c0,0,0,0,0,0C608.3,254.3,608.6,253.9,608.6,253.4L608.6,253.4z"/>
	<path class="st0" d="M616.9,241.1c-4.1-0.2-8.1-1.7-11.4-4.2c-1.3-1-1.4-1.8-0.5-3.1c1.4-2.1,3-4,4.8-5.8c1.1-1,1.9-0.9,2.9,0
		c3.2,2.8,5.4,6.6,6.4,10.7C619.5,240.5,619.1,241.3,616.9,241.1z M615.4,239.1c1.5,0.2,1.7-0.5,1.2-1.7c-0.3-0.7-0.5-1.4-0.8-2
		c-1.5-3.4-2.2-3.4-4.5-0.5c-1.9,2.4-1.7,2.9,1.2,3.7C613.5,238.7,614.4,238.9,615.4,239.1L615.4,239.1z M607.8,236
		c0.2-0.1,0.5-0.2,0.6-0.3c1.1-1.6,2.3-3.1,3.7-4.5c0.4-0.4,0.1-0.9-0.3-1.2c-0.3-0.4-0.9-0.4-1.2,0c0,0,0,0-0.1,0.1
		c-1.4,1.3-2.7,2.8-3.6,4.5C606.3,235.4,607.1,235.7,607.8,236L607.8,236z"/>
	<path class="st0" d="M630.3,247.9c4.1,0.2,8,1.6,11.3,4.1c1.3,0.9,1.6,1.9,0.7,3.3c-1.4,2-2.9,3.9-4.6,5.6
		c-0.6,0.9-1.8,1.1-2.7,0.5c-0.2-0.1-0.3-0.3-0.4-0.4c-3.1-2.8-5.3-6.4-6.3-10.5C627.7,248.2,628.1,247.7,630.3,247.9z M631.6,249.9
		c-1.2-0.2-1.4,0.4-1.1,1.4c0.5,1.5,1.1,2.9,1.9,4.2c0.5,0.9,1.2,1.1,1.9,0.3c1.1-1.2,2.8-2.3,2.6-3.9s-2.4-1.3-3.7-1.7
		C632.7,250,632.2,249.9,631.6,249.9L631.6,249.9z M639.4,253c-0.2,0.1-0.4,0.1-0.5,0.2c-1.3,1.5-2.6,3.1-3.9,4.6
		c-0.3,0.4-0.1,0.8,0.2,1.1c0.4,0.4,0.8,0.6,1.3,0.2c1.5-1.3,2.8-2.9,3.8-4.6C640.9,253.6,640.2,253.2,639.4,253z"/>
	<path class="st0" d="M626,262.4c0,0.3,0,0.6,0,0.8c-0.2,2.7-0.5,3.2-3.2,2.9c-2.1-0.2-4.2-0.6-6.3-1c-1.6-0.3-2-1.2-1.7-2.9
		c0.8-4.1,2.8-7.9,5.8-10.8c1.3-1.3,2.2-1.1,3,0.5C625.4,255.1,626.2,258.7,626,262.4z M622.3,260c1.6,0.2,2.1-0.5,1.6-2
		c-0.2-0.8-0.4-1.6-0.7-2.3c-0.4-0.8-0.3-2.2-1.4-2.3c-0.9-0.1-1.4,1-1.8,1.8c-0.7,1.1-2.3,2.2-1.6,3.5S620.9,259.7,622.3,260
		L622.3,260z M621.9,264.2c1.1,0,2,0.2,2.2-1c0.1-1.2-0.8-1.1-1.6-1.3c-1.3-0.2-2.6-0.4-3.8-0.7c-0.9-0.2-1.6-0.3-1.9,0.8
		c-0.3,1.2,0.6,1.3,1.4,1.5C619.5,263.8,620.9,264,621.9,264.2L621.9,264.2z"/>
	<path class="st0" d="M620.2,227.9c0-0.4,0-0.6,0-0.8c0.1-3.8,0.3-4.1,4-3.8c1.8,0.2,3.5,0.6,5.3,0.9c1.9,0.3,2.3,1.4,1.9,3.2
		c-0.9,4-2.9,7.7-5.8,10.5c-1.3,1.3-2.1,1.1-2.9-0.5C621.1,234.5,620.3,231.2,620.2,227.9z M624.5,228.9c-1.1,0.1-2.3-0.3-2.3,1.4
		c0.1,1.6,1.7,5.6,2.3,5.6c0.7,0,4.1-4.4,3.8-5.4C627.9,228.4,625.8,229.4,624.5,228.9L624.5,228.9z M628.2,227.6
		c0.6,0.1,1.2,0.1,1.3-0.6s-0.4-1-1-1.1c-1.6-0.5-3.3-0.7-5-0.7c-0.6,0-1.2,0.1-1.2,0.9s0.5,1,1.1,1
		C625,227,626.6,227.2,628.2,227.6L628.2,227.6z"/>
	<path class="st0" d="M636.4,244.2c-1.9,0-3.9-0.3-5.7-0.9c-1.6-0.4-2-1.2-1.1-2.6c2.2-3.7,5.6-6.6,9.6-8.3c0.9-0.6,2-0.3,2.6,0.6
		c0.1,0.1,0.1,0.3,0.2,0.4c1.1,2.2,2,4.6,2.7,7c0.3,1.3,0.1,2.2-1.4,2.6C641.1,243.8,638.8,244.2,636.4,244.2z M636.1,242.3
		c2.8,0.1,3.2-0.4,2.4-2.8c-0.2-0.5-0.3-0.9-0.5-1.4c-1.1-2.4-1.5-2.5-3.4-0.5c-1,1.1-3,2.2-2.5,3.6
		C632.6,242.6,634.8,242,636.1,242.3L636.1,242.3z M642.7,240.1c-0.4-1.8-1.1-3.5-1.9-5.1c-0.3-0.5-0.7-0.9-1.4-0.5
		c-0.5,0.2-0.7,0.7-0.6,1.2c0,0.1,0.1,0.1,0.1,0.2c0.8,1.5,1.4,3.1,1.8,4.7c0.1,0.5,0.6,0.9,1.1,0.8c0.1,0,0.2,0,0.2-0.1
		C642.6,241.2,642.8,240.8,642.7,240.1L642.7,240.1z"/>
	<path class="st0" d="M627.4,244.5c-0.1,2-1.7,3.7-3.8,3.7c-2,0.1-3.8-1.5-3.9-3.5c-0.1-2,1.5-3.8,3.5-3.9c0.1,0,0.2,0,0.4,0
		C625.7,240.8,627.3,242.4,627.4,244.5z M625.4,244.6c0-1.1-0.5-1.8-1.5-1.9c-0.9-0.2-1.8,0.4-2,1.3c0,0.1,0,0.2,0,0.3
		c-0.1,1,0.7,1.8,1.7,1.9C624.5,246.3,625.3,245.6,625.4,244.6L625.4,244.6z"/>
</g>
</svg>
