<?xml version="1.0" encoding="utf-8"?>
<!-- Generator: Adobe Illustrator 22.0.0, SVG Export Plug-In . SVG Version: 6.00 Build 0)  -->
<svg version="1.1" id="Layer_1" xmlns="http://www.w3.org/2000/svg" xmlns:xlink="http://www.w3.org/1999/xlink" x="0px" y="0px"
	 viewBox="0 0 115 114" style="enable-background:new 0 0 115 114;" xml:space="preserve">
<style type="text/css">
	.st0{fill:#FFFFFF;}
</style>
<g>
	<g>
		<path class="st0" d="M8.4,48.4v1.3c0,0.5-0.4,0.9-0.9,0.9s-0.9-0.4-0.9-0.9v-1.3c0-0.5,0.4-0.9,0.9-0.9c0.2,0,0.5,0.1,0.7,0.3
			C8.3,48,8.4,48.2,8.4,48.4z"/>
	</g>
	<g>
		<path class="st0" d="M16.7,48.4v1.3c0,0.3-0.1,0.5-0.3,0.7c-0.2,0.2-0.4,0.3-0.6,0.3c-0.3,0-0.5-0.1-0.7-0.3s-0.3-0.4-0.3-0.6
			v-1.3c0-0.5,0.4-0.9,0.9-0.9S16.7,47.9,16.7,48.4z"/>
	</g>
	<g>
		<path class="st0" d="M33.4,48.4v1.3c0,0.5-0.4,0.9-0.9,0.9c-0.3,0-0.5-0.1-0.7-0.3s-0.3-0.4-0.3-0.6v-1.3c0-0.5,0.4-0.9,0.9-0.9
			C33,47.5,33.4,47.9,33.4,48.4z"/>
	</g>
	<g>
		<path class="st0" d="M41.8,48.4v1.3c0,0.5-0.4,0.9-0.9,0.9S40,50.2,40,49.7v-1.3c0-0.5,0.4-0.9,0.9-0.9c0.2,0,0.5,0.1,0.7,0.3
			C41.7,48,41.8,48.2,41.8,48.4z"/>
	</g>
	<g>
		<path class="st0" d="M50.1,48.4v1.3c0,0.5-0.4,0.9-0.9,0.9s-0.9-0.4-0.9-0.9v-1.3c0-0.5,0.4-0.9,0.9-0.9
			C49.7,47.5,50.1,47.9,50.1,48.4z"/>
	</g>
	<g>
		<path class="st0" d="M58.5,48.4v1.3c0,0.5-0.4,0.9-0.9,0.9s-0.9-0.4-0.9-0.9v-1.3c0-0.5,0.4-0.9,0.9-0.9S58.5,47.9,58.5,48.4z"/>
	</g>
	<g>
		<path class="st0" d="M66.8,48.4v1.3c0,0.5-0.4,0.9-0.9,0.9S65,50.2,65,49.7v-1.3c0-0.5,0.4-0.9,0.9-0.9c0.3,0,0.5,0.1,0.7,0.3
			C66.7,48,66.8,48.2,66.8,48.4z"/>
	</g>
	<g>
		<path class="st0" d="M75.2,48.4v1.3c0,0.5-0.5,0.9-0.9,0.9c-0.5,0-0.9-0.4-0.9-0.9v-1.3c0-0.5,0.4-0.9,0.9-0.9
			c0.3,0,0.5,0.1,0.6,0.3C75.1,48,75.2,48.2,75.2,48.4z"/>
	</g>
	<g>
		<path class="st0" d="M83.5,48.4v1.3c0,0.5-0.4,0.9-0.9,0.9s-0.9-0.4-0.9-0.9v-1.3c0-0.5,0.4-0.9,0.9-0.9S83.5,47.9,83.5,48.4z"/>
	</g>
	<g>
		<path class="st0" d="M91.9,48.4v1.3c0,0.5-0.4,0.9-0.9,0.9c-0.2,0-0.5-0.1-0.7-0.3C90.1,50.2,90,50,90,49.8v-1.3
			c0-0.5,0.4-0.9,0.9-0.9C91.5,47.5,91.9,47.9,91.9,48.4z"/>
	</g>
	<g>
		<path class="st0" d="M100.2,48.4v1.3c0,0.5-0.4,0.9-0.9,0.9s-0.9-0.4-0.9-0.9v-1.3c0-0.5,0.4-0.9,0.9-0.9S100.2,47.9,100.2,48.4z"
			/>
	</g>
	<g>
		<path class="st0" d="M108.6,48.4v1.3c0,0.5-0.4,0.9-0.9,0.9c-0.3,0-0.5-0.1-0.6-0.3c-0.2-0.2-0.3-0.4-0.3-0.6v-1.3
			c0-0.5,0.4-0.9,0.9-0.9C108.2,47.5,108.6,47.9,108.6,48.4z"/>
	</g>
	<g>
		<path class="st0" d="M75.7,16.7H39.4c-1.6,0-2.9,1.3-2.9,2.9V40c0,1.6,1.3,2.9,2.9,2.9h36.3c1.6,0,2.9-1.3,2.9-2.9V19.6
			C78.6,18,77.3,16.7,75.7,16.7z M76.8,40c0,0.6-0.5,1.1-1.1,1.1H39.4c-0.6,0-1.1-0.5-1.1-1.1V19.6c0-0.6,0.5-1.1,1.1-1.1h36.3
			c0.6,0,1.1,0.5,1.1,1.1C76.8,19.6,76.8,40,76.8,40z"/>
	</g>
	<path class="st0" d="M62.8,28.8c-0.2-0.3-0.5-0.6-0.8-0.8l-6.7-3.8c-0.3-0.2-0.7-0.3-1.1-0.3c-0.7,0-1.5,0.4-1.9,1.1
		c-0.2,0.3-0.3,0.7-0.3,1.1v7.7c0,0.8,0.4,1.5,1.1,1.9l0,0c0.7,0.4,1.5,0.4,2.1,0l6.7-3.8C63,31.1,63.3,29.8,62.8,28.8z M53.9,34.2
		v-8.8l7.6,4.4L53.9,34.2z"/>
	<path class="st0" d="M98.1,28.9c-0.2-0.3-0.4-0.5-0.7-0.7l-5-2.9c-0.9-0.5-2-0.2-2.5,0.7c-0.1,0.1-0.1,0.3-0.2,0.4l-0.3,0.9l-3.4-2
		c-0.4-0.3-0.9-0.3-1.4-0.2s-0.9,0.4-1.1,0.9c-0.2,0.3-0.2,0.6-0.2,0.9v5.8c0,0.7,0.3,1.3,0.9,1.6c0.3,0.2,0.6,0.3,0.9,0.3
		s0.6-0.1,0.9-0.3l3.4-2l0.3,0.9c0.1,0.5,0.5,0.9,0.9,1.1c0.4,0.2,0.9,0.3,1.4,0.1c0.1,0,0.3-0.1,0.4-0.2l5-2.9
		c0.4-0.2,0.7-0.6,0.9-1.1C98.4,29.8,98.4,29.3,98.1,28.9z M85.2,32.7V27l5,2.9L85.2,32.7z M91.5,32.7V27l5,2.9L91.5,32.7z"/>
	<path class="st0" d="M30,25.1L30,25.1c-0.3,0-0.6,0.1-0.9,0.2l-3.4,2l-0.3-0.9c-0.1-0.5-0.5-0.9-0.9-1.1s-0.9-0.3-1.4-0.1
		c-0.1,0-0.3,0.1-0.4,0.2l-5,2.9c-0.4,0.3-0.7,0.7-0.9,1.1c-0.1,0.5-0.1,1,0.2,1.4c0.2,0.3,0.4,0.5,0.7,0.7l5,2.9
		c0.4,0.2,0.9,0.3,1.4,0.2s0.9-0.4,1.1-0.9c0.1-0.1,0.1-0.3,0.2-0.4l0.3-0.9l3.4,2c0.9,0.5,2,0.2,2.5-0.7c0.2-0.3,0.2-0.6,0.2-0.9
		V27C31.8,26,31,25.1,30,25.1z M23.6,32.7l-5-2.9l5-2.9V32.7z M30,32.7l-5-2.9l5-2.9V32.7z"/>
	<path class="st0" d="M107.2,0.8H73.7c-0.5,0-0.9,0.4-0.9,0.9s0.4,0.9,0.9,0.9h33.4c2.6,0,4.8,2.1,4.8,4.8v3.1H3.1V7.3
		c0-2.6,2.1-4.8,4.8-4.8H66c0.3,0,0.5-0.1,0.6-0.3c0.2-0.2,0.3-0.4,0.3-0.7c0-0.5-0.4-0.9-0.9-0.9H7.8c-3.6,0-6.6,3-6.6,6.6V88
		c0,3.6,3,6.6,6.6,6.6h33.3v7.5h-5.8c-3,0-5.3,2.4-5.3,5.3v3.6c0,1.1,0.9,2,2,2h8.2c0.5,0,0.9-0.4,0.9-0.9s-0.4-0.9-0.9-0.9h-8.4
		v-3.8c0-1.9,1.6-3.5,3.5-3.5h44.4c1.9,0,3.5,1.6,3.5,3.5v3.8H47.8l0,0c-0.2,0-0.5,0.1-0.6,0.3c-0.2,0.2-0.3,0.4-0.3,0.7
		c0,0.5,0.4,0.9,0.9,0.9H83c1.1,0,2-0.9,2-2v-3.6c0-3-2.4-5.3-5.3-5.3h-5.8v-7.5h33.3c3.6,0,6.6-3,6.6-6.6V7.3
		C113.7,3.7,110.8,0.8,107.2,0.8z M72.1,102.3H42.9v-7.5H72L72.1,102.3L72.1,102.3z M111.9,88.2c0,2.6-2.1,4.8-4.8,4.8H7.8
		C5.2,93,3,90.9,3,88.2v-2.6h108.8L111.9,88.2L111.9,88.2z M111.9,83.7H3.1v-4.6h108.8V83.7z M23.3,62.9v8h-20v-8H23.3z M3.2,61
		v-4.3h20V61H3.2z M23.3,72.9v4.3h-20v-4.3H23.3z M111.9,77.2H25.1v-4.3h86.8V77.2z M22.4,52.3v-3.5h3.5v3.5H22.4z M111.9,70.9H25.1
		v-8h86.8V70.9z M111.9,61H25.1v-4.3h86.8V61z M111.9,54.9H25.6l1.5-1.3c0.4-0.4,0.7-0.9,0.7-1.5V49c0-1.1-0.9-2-2-2h-3.1
		c-1.1,0-2,0.9-2,2v3.1c0,0.6,0.2,1.1,0.7,1.5l1.5,1.3H3.1V12.3h108.8V54.9z"/>
</g>
</svg>
