<svg xmlns="http://www.w3.org/2000/svg" xmlns:xlink="http://www.w3.org/1999/xlink" width="115" height="114" viewBox="0 0 115 114"><defs><clipPath id="a"><rect width="115" height="114" transform="translate(780 627)" fill="#fc3" stroke="#141414" stroke-width="1.5"/></clipPath></defs><g transform="translate(-780 -627)" clip-path="url(#a)"><g transform="translate(780.39 627)"><path d="M7.079,46.757a1.67,1.67,0,0,0-1.67,1.67v1.336a1.669,1.669,0,1,0,3.339,0V48.427A1.669,1.669,0,0,0,7.079,46.757Zm0,0" fill="#fc3" stroke="#141414" stroke-width="1.5"/><path d="M15.428,46.757a1.67,1.67,0,0,0-1.67,1.67v1.336a1.67,1.67,0,1,0,3.34,0V48.427A1.67,1.67,0,0,0,15.428,46.757Zm0,0" fill="#fc3" stroke="#141414" stroke-width="1.5"/><path d="M32.126,46.757a1.67,1.67,0,0,0-1.67,1.67v1.336a1.67,1.67,0,0,0,3.34,0V48.427A1.67,1.67,0,0,0,32.126,46.757Zm0,0" fill="#fc3" stroke="#141414" stroke-width="1.5"/><path d="M40.475,46.757a1.67,1.67,0,0,0-1.669,1.67v1.336a1.669,1.669,0,1,0,3.339,0V48.427A1.669,1.669,0,0,0,40.475,46.757Zm0,0" fill="#fc3" stroke="#141414" stroke-width="1.5"/><path d="M48.824,46.757a1.67,1.67,0,0,0-1.67,1.67v1.336a1.67,1.67,0,0,0,3.34,0V48.427A1.67,1.67,0,0,0,48.824,46.757Zm0,0" fill="#fc3" stroke="#141414" stroke-width="1.5"/><path d="M57.173,46.757a1.67,1.67,0,0,0-1.67,1.67v1.336a1.67,1.67,0,0,0,3.34,0V48.427A1.669,1.669,0,0,0,57.173,46.757Zm0,0" fill="#fc3" stroke="#141414" stroke-width="1.5"/><path d="M65.522,46.757a1.67,1.67,0,0,0-1.669,1.67v1.336a1.669,1.669,0,1,0,3.339,0V48.427A1.669,1.669,0,0,0,65.522,46.757Zm0,0" fill="#fc3" stroke="#141414" stroke-width="1.5"/><path d="M73.871,46.757a1.67,1.67,0,0,0-1.67,1.67v1.336a1.67,1.67,0,0,0,3.34,0V48.427A1.669,1.669,0,0,0,73.871,46.757Zm0,0" fill="#fc3" stroke="#141414" stroke-width="1.5"/><path d="M82.22,46.757a1.67,1.67,0,0,0-1.669,1.67v1.336a1.669,1.669,0,1,0,3.339,0V48.427A1.669,1.669,0,0,0,82.22,46.757Zm0,0" fill="#fc3" stroke="#141414" stroke-width="1.5"/><path d="M90.57,46.757a1.67,1.67,0,0,0-1.67,1.67v1.336a1.67,1.67,0,0,0,3.34,0V48.427A1.67,1.67,0,0,0,90.57,46.757Zm0,0" fill="#fc3" stroke="#141414" stroke-width="1.5"/><path d="M98.919,46.757a1.67,1.67,0,0,0-1.669,1.67v1.336a1.669,1.669,0,1,0,3.339,0V48.427A1.669,1.669,0,0,0,98.919,46.757Zm0,0" fill="#fc3" stroke="#141414" stroke-width="1.5"/><path d="M107.268,46.757a1.67,1.67,0,0,0-1.67,1.67v1.336a1.67,1.67,0,0,0,3.34,0V48.427A1.67,1.67,0,0,0,107.268,46.757Zm0,0" fill="#fc3" stroke="#141414" stroke-width="1.5"/><path d="M39.047,43.724H75.3a3.676,3.676,0,0,0,3.672-3.672V19.642A3.676,3.676,0,0,0,75.3,15.969H39.047a3.676,3.676,0,0,0-3.672,3.672v20.41A3.676,3.676,0,0,0,39.047,43.724Zm-.332-24.083a.332.332,0,0,1,.332-.332H75.3a.332.332,0,0,1,.332.332v20.41a.332.332,0,0,1-.332.332H39.047a.332.332,0,0,1-.332-.332Zm0,0" fill="#fc3" stroke="#141414" stroke-width="1.5"/><path d="M52.4,36.194a2.873,2.873,0,0,0,2.9,0l6.642-3.835a2.9,2.9,0,0,0,0-5.025L55.3,23.5a2.9,2.9,0,0,0-4.352,2.513v7.669A2.872,2.872,0,0,0,52.4,36.194Zm1.889-9.423,5.327,3.075-5.327,3.076Zm0,0" fill="#fc3" stroke="#141414" stroke-width="1.5"/><path d="M83.474,34.974a2.6,2.6,0,0,0,2.594,0l2.6-1.5a2.594,2.594,0,0,0,3.778,1.5l4.989-2.881a2.6,2.6,0,0,0,0-4.494l-4.989-2.881a2.588,2.588,0,0,0-3.778,1.5l-2.6-1.5a2.6,2.6,0,0,0-3.892,2.247v5.76A2.6,2.6,0,0,0,83.474,34.974Zm8.418-6.718,2.755,1.59-2.755,1.591Zm-6.376,0,2.755,1.59-2.755,1.591Zm0,0" fill="#fc3" stroke="#141414" stroke-width="1.5"/><path d="M16.912,32.094,21.9,34.975a2.589,2.589,0,0,0,3.778-1.5l2.6,1.5a2.6,2.6,0,0,0,3.893-2.247v-5.76a2.6,2.6,0,0,0-3.893-2.247l-2.6,1.5a2.588,2.588,0,0,0-3.778-1.5L16.913,27.6h0a2.6,2.6,0,0,0,0,4.494ZM28.83,28.257v3.181l-2.755-1.591Zm-6.377,0v3.181L19.7,29.846Zm0,0" fill="#fc3" stroke="#141414" stroke-width="1.5"/><path d="M106.757,0H73.315a1.67,1.67,0,0,0,0,3.34h33.442a4.015,4.015,0,0,1,4.011,4.011V9.67H3.45V7.351A4.016,4.016,0,0,1,7.462,3.34H65.634a1.67,1.67,0,0,0,0-3.34H7.462A7.359,7.359,0,0,0,.111,7.351V88.166a7.359,7.359,0,0,0,7.351,7.351h32.5v5.991H34.919a6.107,6.107,0,0,0-6.1,6.1v3.609A2.787,2.787,0,0,0,31.6,114h8.206a1.67,1.67,0,0,0,0-3.34H32.158v-3.052a2.764,2.764,0,0,1,2.761-2.761H79.3a2.764,2.764,0,0,1,2.761,2.761v3.052H47.415a1.67,1.67,0,1,0,0,3.34h35.2a2.787,2.787,0,0,0,2.783-2.783v-3.609a6.107,6.107,0,0,0-6.1-6.1H74.257V95.517h32.5a7.359,7.359,0,0,0,7.351-7.351V7.351A7.359,7.359,0,0,0,106.757,0ZM70.917,101.508H43.3V95.517H70.917Zm39.851-13.342a4.016,4.016,0,0,1-4.011,4.011H7.462A4.015,4.015,0,0,1,3.45,88.166V86.278H110.768Zm0-5.227H3.45V79.822H110.768Zm-88.662-19.3v6.508H3.574V63.637ZM3.574,60.3v-2.8H22.106v2.8ZM22.106,73.677v2.8H3.574v-2.8Zm.684-22.14V49.563h1.973v1.974Zm87.978,24.944H25.446v-2.8h85.322Zm0-6.336H25.446V63.637h85.322Zm0-9.848H25.446v-2.8h85.322Zm0-6.144H27.184a2.768,2.768,0,0,0,.919-2.06V49.006a2.786,2.786,0,0,0-2.783-2.783H22.233a2.786,2.786,0,0,0-2.783,2.783v3.088a2.769,2.769,0,0,0,.918,2.06H3.45V13.01H110.768Zm0,0" fill="#fc3" stroke="#141414" stroke-width="1.5"/></g></g></svg>