<?xml version="1.0" encoding="utf-8"?>
<!-- Generator: Adobe Illustrator 22.0.0, SVG Export Plug-In . SVG Version: 6.00 Build 0)  -->
<svg version="1.1" id="Camada_1" xmlns="http://www.w3.org/2000/svg" xmlns:xlink="http://www.w3.org/1999/xlink" x="0px" y="0px"
	 viewBox="0 0 600 400" style="enable-background:new 0 0 600 400;" xml:space="preserve">
<style type="text/css">
	.st0{fill:#003399;}
</style>
<g>
	<path d="M479.6,163.7c7-0.6,13.9-0.3,20.8,1.2c4.5,1,8.3,3.2,11.5,6.4c5,4.9,6.1,12.9,2.4,18.8c-1.5,2.4-3.5,4.6-5.6,6.6
		c-5.5,5.1-12.2,7.9-19.3,10c-10.1,2.9-20.3,3.7-30.6,1.5c-5.9-1.3-11.3-3.8-15.6-8.2c-2.6-2.7-4.1-5.6-2.5-9.3
		c1.6-3.8,4.9-5.1,8.7-5.5c3.2-0.3,5.7,1.1,8,3.4c1.5,1.4,3.4,2.6,5.3,3.3c4.8,2,9.9,1.9,15,1.2c6-0.8,11.7-2.2,16.7-5.9
		c1.1-0.8,2.1-1.7,3-2.7c1.2-1.3,1-2.2-0.5-3.1c-2.8-1.8-6-2.5-9.2-2.7c-4.1-0.2-8.3,0.1-12.4,0c-5.9,0-11.7,0.1-17.6-0.3
		c-6.6-0.5-12.5-2.9-17.1-7.9c-4.5-4.9-5.2-12.6-1.7-18.3c2.2-3.6,5.2-6.3,8.5-8.6c8.6-6.1,18.4-8.8,28.7-9.9
		c6.9-0.7,13.7-0.6,20.4,1.5c5.1,1.6,9.8,3.7,13.2,8.1c3.2,4.2,1,9.5-2.3,11.3c-4.1,2.3-9.8,2.6-13.5-2c-0.7-0.9-1.9-1.5-3-1.9
		c-4-1.7-8.2-2.1-12.5-1.8c-6.9,0.6-13.6,1.8-19.4,6c-1.1,0.8-2.1,1.7-3,2.7c-1.4,1.5-1.2,2.6,0.6,3.4c1.7,0.8,3.5,1.4,5.4,1.9
		c5.2,1.4,10.5,0.6,15.7,0.6C478.2,163.7,478.9,163.7,479.6,163.7z"/>
	<path d="M233.8,219.5c-3.7,0.5-7.2,1.1-10.6,1.5c-2.5,0.3-5,0.5-7.5,0.4c-3.4-0.1-5.4-1.7-6.3-4.6c-0.9-2.9,0-6.2,2.4-8.2
		c2.2-1.8,4.8-2.7,7.5-3.1c7.3-1.1,14.6-2.2,21.9-3.2c1.7-0.2,3.4-0.1,5.1,0.2c3.5,0.7,5.5,3.1,5.7,6.6c0.4,5.8,0.8,11.6,1.1,17.4
		c0.2,3.1-1.1,5.8-3.2,8c-6.1,6.3-13.2,11-21.6,13.7c-10,3.3-20,4-30.2,0.9c-8.4-2.5-15.2-7.6-19.8-14.9c-4.2-6.8-5.4-14.7-3.8-22.8
		c2-10.8,8.3-18.6,16.7-25c11.9-9.1,25.4-12.2,40.1-10c5.7,0.9,10.9,3.2,15.5,6.5c3.5,2.5,3.7,7.9,0.3,10.9c-4.1,3.5-8,4.4-12.7,1.7
		c-3.7-2.1-7.4-3.8-11.7-4.1c-11.3-0.8-20.2,3.5-26.8,12.7c-3.1,4.3-4.4,9.1-3.8,14.3c0.7,6.1,4.3,10,9.3,13.1
		c9.8,6,23.6,3.9,32-3.8c0.4-0.3,0.8-0.9,0.8-1.3C234.1,224.2,233.9,222,233.8,219.5z"/>
	<path d="M304.5,238.1c-19.2,0.3-30.1-4.4-38.5-14.3c-4.2-4.9-6.1-11.1-6.5-17.6c-0.6-9.6,2.4-18,8.6-25.2
		c12.9-15,29.4-20.7,48.7-18.1c9.8,1.3,17.9,6.3,24.1,13.9c4.3,5.3,6.3,11.8,6.4,18.7c0.2,9.8-3.4,18.1-9.8,25.3
		C327.1,232.5,313.7,237.7,304.5,238.1z M306,177.8c-0.5,0-0.9,0-1.4,0c-11.9,0.9-20.6,6.6-25.6,17.6c-3.4,7.4-1.2,15.9,5,20.9
		c8.4,6.8,17.8,7.6,27.5,3.9c8-3,13.8-8.7,16.6-16.9c1.7-5.1,1.5-10.2-1.5-14.8C321.9,181,314.6,178.1,306,177.8z"/>
	<path d="M408,104.6c-0.6-6.7-1.2-13-1.8-19.4c-0.4-4.5-0.9-9.1-1.3-13.6c-0.5-5.4,3.9-10,9.5-10c5.4,0,8.4,2.6,8.9,8
		c1.8,17.4,3.5,34.8,5.3,52.2c0.4,4-0.4,7.5-4,9.7c-3.6,2.2-7.6,2.5-11.3,0.1c-2.5-1.6-4.6-3.7-6.9-5.6c-11-9.1-22-18.3-32.9-27.4
		c-0.3-0.3-0.6-0.5-1.2-0.9c0.1,1,0.1,1.8,0.2,2.6c0.9,10.1,1.8,20.3,2.7,30.4c0.6,7.7-7,12.9-14.1,9.8c-3-1.3-4-4-4.3-6.9
		c-0.8-7.9-1.4-15.8-2-23.7c-0.8-9.9-1.6-19.9-2.5-29.8c-0.5-6.2,3.4-10.6,9.6-10.7c3,0,5.5,1.1,7.8,3c6.4,5.4,12.9,10.8,19.4,16.2
		c6,5,12.1,10.1,18.1,15.1C407.2,104,407.5,104.1,408,104.6z"/>
	<path class="st0" d="M82.9,196c25.6-3.8,50.8-7.6,76.3-11.4c2.6,25.2,5.2,50.3,7.9,75.8C139,238.9,111.1,217.6,82.9,196z"/>
	<path class="st0" d="M433.8,52.4c28.2,22.1,56.1,44,84.2,66c-4.3,0.7-8.3,1.3-12.3,1.9c-19.9,2.9-39.8,5.8-59.7,8.7
		c-2.6,0.4-2.6,0.4-2.9-2.2c-2.8-22.6-5.6-45.3-8.5-67.9C434.4,56.8,434.1,54.8,433.8,52.4z"/>
	<path d="M139.6,128.1c-0.3-6-0.5-11.9-0.8-17.9c-0.3-6.1,3.3-10.4,9.4-11.2c1.2-0.2,2.5-0.3,3.7-0.2c4.7,0.1,7.8,3,8,7.6
		c0.6,12.2,1.4,24.4,1.5,36.7c0.1,10.8-4.9,19.5-13.4,26c-10.5,8.2-22.5,11.9-35.8,11.3c-9.3-0.4-17.4-3.7-24.1-10.2
		c-3.3-3.2-5.3-7.1-6.1-11.5c-0.6-3.5,0.8-6.5,3.6-8.6c3.3-2.5,7.3-3.1,11.3-2.3c3.3,0.7,5,2.9,5.9,6.1c1.1,4.1,3.8,7.1,7.8,8.6
		c10.4,3.9,21.6,0.2,27.7-9.1c1.6-2.4,2-5.1,1.9-7.9C140.1,139.7,139.8,133.9,139.6,128.1C139.6,128.1,139.6,128.1,139.6,128.1z"/>
	<path d="M299,103.4c-1.4,2.8-2.7,5.5-4,8.1c-2.1,4.3-4.2,8.6-6.4,13c-4.5,9-8.9,18-13.4,27.1c-2.4,4.9-10,6.9-14.5,3.9
		c-2.5-1.7-3.4-4.9-2-8.2c1.3-2.9,2.7-5.7,4.1-8.5c6.9-13.8,13.7-27.5,20.6-41.3c2.1-4.2,4.2-8.4,6.5-12.5
		c2.7-4.9,11.5-7.8,16.3-1.5c3.9,5.1,7.7,10.2,11.6,15.3c8.6,11.3,17.1,22.6,25.8,33.8c2.2,2.8,3.1,5.6,1.4,8.8
		c-1.8,3.5-4.9,4.7-8.6,4.9c-3.9,0.3-6.6-1.8-8.7-4.7c-9.2-12.2-18.5-24.5-27.7-36.7C299.8,104.4,299.4,104,299,103.4z"/>
	<path d="M367.5,225.4c-1-0.2-2.3-0.2-3.5-0.6c-5.7-1.6-6.3-9-2.5-12.4c2.1-1.9,4.6-2.8,7.3-3.2c17.1-2.6,34.1-5.1,51.2-7.5
		c2.3-0.3,4.9,0,7.2,0.6c5.1,1.5,5.6,8.9,1.9,12.1c-2.3,2-5.1,2.8-8,3.3c-17,2.5-33.9,5-50.9,7.5
		C369.5,225.4,368.7,225.3,367.5,225.4z"/>
	<path d="M362.7,167.7c-1.1-0.2-2.4-0.2-3.6-0.6c-3.1-1-4.6-3.2-4.7-6.4c-0.1-3.2,1.7-6.1,5-7.3c2.7-1,5.5-1.6,8.3-2
		c15.1-2.3,30.2-4.6,45.4-6.7c2.3-0.3,4.6-0.4,6.9-0.2c2.9,0.3,5.1,1.9,5.8,4.9c0.7,2.9,0.1,5.5-2.2,7.5c-2.1,1.9-4.7,2.7-7.4,3.1
		c-16.8,2.5-33.6,5-50.4,7.5C364.7,167.6,363.8,167.6,362.7,167.7z"/>
	<path d="M183.3,169.4c-0.9-0.1-1.7-0.1-2.5-0.2c-6-0.8-7.2-6.7-4.6-10.7c1.9-2.9,4.9-4.1,8.1-4.6c16.8-2.6,33.6-5.1,50.4-7.5
		c1.9-0.3,3.9-0.1,5.8,0.2c2.6,0.5,4.4,2.2,4.8,4.9c0.5,2.8-0.2,5.3-2.4,7.2c-2.2,1.9-4.8,2.7-7.5,3.2c-16.7,2.5-33.3,5-50,7.4
		C184.7,169.3,183.9,169.3,183.3,169.4z"/>
	<path d="M180.1,113.6c-1.1-0.2-2.3-0.3-3.3-0.6c-2.4-0.7-3.9-2.3-4.3-4.8c-0.4-2.7,0.3-5.2,2.5-7c2.6-2.1,5.7-2.8,8.9-3.3
		c13.2-2,26.3-4,39.5-5.9c3.7-0.5,7.4-1.1,11.2-1.3c4.2-0.2,6.7,1.8,7.4,5.2c0.7,3.4-1.2,7-4.8,8.5c-1.7,0.7-3.6,1.3-5.5,1.6
		c-16.1,2.5-32.1,4.8-48.2,7.2C182.5,113.5,181.3,113.5,180.1,113.6z"/>
	<path class="st0" d="M368.9,195.2c-0.3,0-0.9,0-1.5-0.1c-3.5-0.5-5.9-2.6-6.5-5.6c-0.6-3,0.8-6.5,3.7-8.1c1.8-1,3.7-1.8,5.7-2.1
		c14.4-2.2,28.9-4.4,43.4-6.4c1.9-0.3,3.9,0,5.8,0.4c2.9,0.7,4.5,2.8,4.9,5.6c0.4,2.9-0.4,5.5-2.8,7.1c-1.9,1.2-4.1,2.3-6.3,2.7
		c-14.6,2.3-29.2,4.4-43.9,6.5C370.7,195.3,370,195.2,368.9,195.2z"/>
	<path class="st0" d="M185.6,140.4c-1.3-0.3-2.7-0.4-3.9-0.9c-2.9-1-4.4-4.3-3.8-7.3c0.8-3.5,2.9-5.7,6.3-6.5c4-0.9,8-1.7,12-2.3
		c11.2-1.7,22.5-3.4,33.7-5c1.6-0.2,3.4,0,5,0.3c2.7,0.6,4.3,2.6,4.7,5.3c0.4,2.9-0.5,5.5-3,7.1c-1.9,1.2-4.1,2.3-6.3,2.6
		c-14.1,2.2-28.1,4.3-42.2,6.4c-0.8,0.1-1.7,0.1-2.5,0.2C185.6,140.3,185.6,140.3,185.6,140.4z"/>
</g>
</svg>
