<?xml version="1.0" encoding="utf-8"?>
<!-- Generator: Adobe Illustrator 22.0.0, SVG Export Plug-In . SVG Version: 6.00 Build 0)  -->
<svg version="1.1" id="Layer_1" xmlns="http://www.w3.org/2000/svg" xmlns:xlink="http://www.w3.org/1999/xlink" x="0px" y="0px"
	 viewBox="0 0 24 24" style="enable-background:new 0 0 24 24;" xml:space="preserve">
<style type="text/css">
	.st0{opacity:0.4;fill:#FFFFFF;}
</style>
<title>email</title>
<path class="st0" d="M21,12h-5c-0.4,0-0.8,0.3-0.9,0.7L14.3,15H9.7l-0.8-2.3C8.8,12.3,8.4,12,8,12H3c-0.6,0-1,0.4-1,1v4
	c0,2.8,2.2,5,5,5h10c2.8,0,5-2.2,5-5v-4C22,12.4,21.6,12,21,12z M20,17c0,1.7-1.3,3-3,3H7c-1.7,0-3-1.3-3-3v-3h3.3l0.8,2.3
	C8.2,16.7,8.6,17,9,17h6c0.4,0,0.8-0.3,0.9-0.7l0.8-2.3H20V17z"/>
<path class="st0" d="M6.4,8.8C6.8,9.1,7.5,9,7.8,8.6C8.1,8.2,8,7.5,7.6,7.2l-4-3C3.2,3.9,2.5,4,2.2,4.4S2,5.5,2.4,5.8l0,0L6.4,8.8z"
	/>
<path class="st0" d="M13,8V3c0-0.6-0.4-1-1-1s-1,0.4-1,1v5c0,0.6,0.4,1,1,1S13,8.6,13,8z"/>
<path class="st0" d="M18.7,8.7l3-3c0.4-0.4,0.4-1,0-1.4c-0.4-0.4-1-0.4-1.4,0l-3,3c-0.4,0.4-0.4,1,0,1.4C17.7,9.1,18.3,9.1,18.7,8.7
	z"/>
</svg>
