<?xml version="1.0" encoding="utf-8"?>
<!-- Generator: Adobe Illustrator 22.0.0, SVG Export Plug-In . SVG Version: 6.00 Build 0)  -->
<svg version="1.1" id="Layer_1" xmlns="http://www.w3.org/2000/svg" xmlns:xlink="http://www.w3.org/1999/xlink" x="0px" y="0px"
	 viewBox="0 0 347 464" style="enable-background:new 0 0 347 464;" xml:space="preserve">
<style type="text/css">
	.st0{fill:url(#SVGID_1_);}
	.st1{fill:url(#SVGID_2_);}
</style>
<g>
	<g>
		
			<image style="overflow:visible;opacity:0.36;" width="185" height="325" xlink:href="75CD81AD.png"  transform="matrix(1 0 0 1 162 139)">
		</image>
		<g>
			<linearGradient id="SVGID_1_" gradientUnits="userSpaceOnUse" x1="60.7098" y1="93.1775" x2="259.1264" y2="334.9265">
				<stop  offset="0" style="stop-color:#EF8E30"/>
				<stop  offset="0.2356" style="stop-color:#E77523"/>
				<stop  offset="0.7479" style="stop-color:#D6420A"/>
				<stop  offset="1" style="stop-color:#D02E00"/>
			</linearGradient>
			<path class="st0" d="M166.3,234.3l0,220.9l151.4-169.2c0,0,0,0,0,0c13.2-15.1,21.3-34.9,21.3-56.5c0-47.5-38.6-86.1-86.1-86.1
				s-86.7,38.6-86.7,86.1C166.2,231.1,166.3,232.8,166.3,234.3z M253,153.9c41.8,0,75.9,33.9,75.9,75.7c0,29.5-16.9,55-41.6,67.6
				c-10.2,5-21.6,7.9-33.5,7.9c-42.2,0-76.5-34.4-76.5-75.4h-0.1C177.3,188.8,211.2,153.9,253,153.9z"/>
		</g>
	</g>
	<g>
		<image style="overflow:visible;opacity:0.36;" width="184" height="324" xlink:href="75CD81AF.png" >
		</image>
		<g>
			<linearGradient id="SVGID_2_" gradientUnits="userSpaceOnUse" x1="59.3826" y1="94.7854" x2="257.3738" y2="336.0161">
				<stop  offset="0" style="stop-color:#EF8E30"/>
				<stop  offset="0.2356" style="stop-color:#E77523"/>
				<stop  offset="0.7479" style="stop-color:#D6420A"/>
				<stop  offset="1" style="stop-color:#D02E00"/>
			</linearGradient>
			<path class="st1" d="M176,225.1l0-221L26.6,171.9c0,0-1.1,1.4-1.1,1.4l0.1,0c-13.2,15.1-21.2,34.9-21.2,56.5
				c0,47.5,38.6,86.1,86.1,86.1s85.4-38.6,85.4-86.1C176,228.2,176,226.6,176,225.1z M90.5,305.6c-41.8,0-75.9-34-75.9-75.9
				c0-29.5,16.9-55.1,41.6-67.6c10.2-5,21.6-7.7,33.5-7.7c42.2,0,76.5,34.6,76.5,75.6l0,0C166.1,271,132.3,305.6,90.5,305.6z"/>
		</g>
	</g>
</g>
</svg>
