<svg xmlns="http://www.w3.org/2000/svg" width="18.325" height="18.893" viewBox="0 0 18.325 18.893"><g transform="translate(-81.393 -38.39)"><path d="M97.6,46.382h-1.6a6,6,0,0,1,.185,1.454,5.641,5.641,0,1,1-11.276,0,5.986,5.986,0,0,1,.185-1.454h-1.6v7.994a.716.716,0,0,0,.706.726H96.9a.716.716,0,0,0,.706-.726Zm0-5.086a.716.716,0,0,0-.706-.726H94.784a.716.716,0,0,0-.7.726v2.18a.716.716,0,0,0,.7.727H96.9a.716.716,0,0,0,.706-.727ZM90.555,44.2a3.635,3.635,0,1,0,3.524,3.633A3.58,3.58,0,0,0,90.555,44.2M97.6,57.282h-14.1A2.148,2.148,0,0,1,81.393,55.1V40.569a2.148,2.148,0,0,1,2.114-2.18H97.6a2.147,2.147,0,0,1,2.114,2.18V55.1A2.148,2.148,0,0,1,97.6,57.282" fill="#fff" fill-rule="evenodd"/></g></svg>