<svg xmlns="http://www.w3.org/2000/svg" width="18.324" height="18.858" viewBox="0 0 18.324 18.858"><g transform="translate(-155.69 -38.283)"><rect width="3.801" height="12.596" transform="translate(155.991 44.544)" fill="#fff"/><path d="M157.893,38.283a2.271,2.271,0,1,0,2.2,2.27A2.235,2.235,0,0,0,157.893,38.283Z" fill="#fff"/><path d="M169.46,44.232a3.969,3.969,0,0,0-3.593,2.035h-.052V44.544h-3.64v12.6h3.793v-6.23c0-1.643.3-3.235,2.277-3.235,1.949,0,1.973,1.879,1.973,3.34v6.126h3.8V50.233C174.015,46.84,173.3,44.232,169.46,44.232Z" fill="#fff"/></g></svg>