<?xml version="1.0" encoding="utf-8"?>
<!-- Generator: Adobe Illustrator 22.0.0, SVG Export Plug-In . SVG Version: 6.00 Build 0)  -->
<svg version="1.1" id="Layer_1" xmlns="http://www.w3.org/2000/svg" xmlns:xlink="http://www.w3.org/1999/xlink" x="0px" y="0px"
	 viewBox="0 0 100 100.3" style="enable-background:new 0 0 100 100.3;" xml:space="preserve">
<style type="text/css">
	.st0{fill:#FFFFFF;}
</style>
<g>
	<path class="st0" d="M88.4,18h-5.9h-6h-6h-6c-0.1,0-0.2,0-0.3,0c-0.8,0.1-1.3,0.8-1.3,1.6v12.8c0,0.1,0,0.3,0.1,0.4v24.5L45.7,74.8
		l-0.1,0.1l0,0l0,0c-2.6,2.5-4,6-4,9.6c0,7.4,6,13.5,13.5,13.5c3.6,0,7-1.4,9.6-4l0,0l16.8-16.8l4.4-4.4c0.2-0.2,0.3-0.3,0.5-0.5
		c2.3-2.4,3.7-5.4,3.8-8.7c0-0.2,0-0.5,0-0.7v-7.8V32.5v-3.6v-9.3C90,18.7,89.3,18,88.4,18z M83.8,70.2c-0.1,0.1-0.2,0.3-0.4,0.4
		l-3.2,3.2c-1.4-1.7-2.1-4-2.1-6.8c0-5.1,3.8-9.4,8.7-10.1V63c0,0.2,0,0.3,0,0.5s0,0.3,0,0.5C86.5,66.1,85.4,68.4,83.8,70.2z
		 M55,94.8c-5.7,0-10.3-4.6-10.3-10.3c0-2.2,0.7-4.4,2-6.1l14.4,14.4C59.3,94.1,57.2,94.8,55,94.8z M86.8,27.3v1.6v1.6v0.4h-2.7
		v-0.4v-1.6v-1.6v-6.1h2.7V27.3z M80.9,27.3v1.6v1.6v0.4h-2.8v-0.4v-1.6v-1.6v-6.1h2.8V27.3z M75,21.2v6.1v1.6v1.6v0.4h-2.8v-0.4
		v-1.6v-1.6v-6.1H75z M69,27.3v1.6v1.6v0.4h-2.7v-0.4v-1.6v-1.6v-6.1H69V27.3z"/>
	<path class="st0" d="M29.5,74.8l-0.1-0.1c-0.6-0.6-1.6-0.6-2.3,0c-0.6,0.6-0.6,1.6,0,2.3l0.1,0.1c0.3,0.3,0.7,0.5,1.1,0.5
		s0.8-0.2,1.1-0.5C30.2,76.4,30.2,75.4,29.5,74.8z"/>
	<path class="st0" d="M25.9,73.3c0.6-0.6,0.6-1.6,0-2.3l-0.2-0.2c-0.6-0.6-1.6-0.6-2.3,0s-0.6,1.6,0,2.3l0.2,0.2
		c0.3,0.3,0.7,0.5,1.1,0.5S25.5,73.7,25.9,73.3z"/>
	<path class="st0" d="M21.8,67.1c-0.6-0.6-1.6-0.6-2.3,0c-0.6,0.6-0.6,1.6,0,2.3l0.2,0.2c0.3,0.3,0.7,0.5,1.1,0.5s0.8-0.2,1.1-0.5
		c0.6-0.6,0.6-1.6,0-2.3L21.8,67.1z"/>
	<path class="st0" d="M18.2,63.4c-0.6-0.6-1.6-0.6-2.3,0c-0.6,0.6-0.6,1.6,0,2.3l0.1,0.1c0.3,0.3,0.7,0.5,1.1,0.5
		c0.4,0,0.8-0.2,1.1-0.5c0.6-0.6,0.6-1.6,0-2.3V63.4z"/>
	<path class="st0" d="M29.3,78.2l-0.1,0.1l0,0l0,0l-0.1,0.1c-0.6,0.6-0.6,1.6,0,2.3c0.3,0.3,0.7,0.5,1.1,0.5s0.8-0.2,1.1-0.5
		l0.1-0.1l0,0l0.1-0.1c0.6-0.6,0.6-1.6,0-2.3C30.9,77.5,29.9,77.5,29.3,78.2z"/>
	<path class="st0" d="M53.7,39.3c0,0.9,0.7,1.6,1.6,1.6s1.6-0.7,1.6-1.6V39c0-0.9-0.7-1.6-1.6-1.6s-1.6,0.7-1.6,1.6V39.3z"/>
	<path class="st0" d="M46.8,60.6c-0.6,0.6-0.6,1.6,0,2.3c0.3,0.3,0.7,0.5,1.1,0.5c0.4,0,0.8-0.2,1.1-0.5l0.2-0.2
		c0.6-0.6,0.6-1.6,0-2.3c-0.6-0.6-1.6-0.6-2.3,0L46.8,60.6z"/>
	<path class="st0" d="M50.6,56.9l-0.2,0.2c-0.6,0.6-0.6,1.6,0,2.3c0.3,0.3,0.7,0.5,1.1,0.5c0.4,0,0.8-0.1,1.1-0.5l0.2-0.2
		c0.6-0.6,0.6-1.6,0-2.3C52.2,56.3,51.2,56.3,50.6,56.9z"/>
	<path class="st0" d="M53.7,55.6c0.2,0.1,0.4,0.1,0.6,0.1c0.6,0,1.2-0.4,1.5-1c0-0.1,0.1-0.2,0.1-0.3c0.3-0.8-0.1-1.7-0.9-2.1
		c-0.8-0.3-1.8,0.1-2.1,0.9c0,0.1-0.1,0.2-0.1,0.3C52.5,54.3,52.9,55.3,53.7,55.6z"/>
	<path class="st0" d="M44.4,66.9c0.4,0,0.8-0.2,1.1-0.5l0.2-0.2c0.6-0.6,0.6-1.6,0-2.3c-0.6-0.6-1.6-0.6-2.3,0l-0.2,0.2
		c-0.6,0.6-0.6,1.6,0,2.3C43.6,66.8,44,66.9,44.4,66.9z"/>
	<path class="st0" d="M55.3,47.4c-0.9,0-1.6,0.7-1.6,1.6v0.3c0,0.9,0.7,1.6,1.6,1.6s1.6-0.7,1.6-1.6V49
		C56.9,48.1,56.2,47.4,55.3,47.4z"/>
	<path class="st0" d="M53.7,34.3c0,0.9,0.7,1.6,1.6,1.6s1.6-0.7,1.6-1.6V34c0-0.9-0.7-1.6-1.6-1.6s-1.6,0.7-1.6,1.6V34.3z"/>
	<path class="st0" d="M56.9,43.9c0-0.8-0.5-1.4-1.3-1.6c-0.1,0-0.1,0-0.2,0c-0.9-0.2-1.7,0.4-1.9,1.3c-0.1,0.4,0,0.8,0.2,1.1l0,0
		l0,0c0.2,0.7,0.8,1.1,1.5,1.1c0.9,0,1.6-0.7,1.6-1.6v-0.3H56.9z"/>
	<path class="st0" d="M55.3,25.8c0.9,0,1.6-0.7,1.6-1.6v-0.3c0-0.9-0.7-1.6-1.6-1.6s-1.6,0.7-1.6,1.6v0.3
		C53.7,25.1,54.4,25.8,55.3,25.8z"/>
	<path class="st0" d="M53.7,29.2c0,0.9,0.7,1.6,1.6,1.6s1.6-0.7,1.6-1.6v-0.3c0-0.9-0.7-1.6-1.6-1.6s-1.6,0.7-1.6,1.6V29.2z"/>
	<path class="st0" d="M42.2,69.8c0.6-0.6,0.6-1.6,0-2.3c-0.6-0.6-1.6-0.6-2.3,0l-0.2,0.2c-0.6,0.6-0.6,1.6,0,2.3
		c0.3,0.3,0.7,0.5,1.1,0.5c0.4,0,0.8-0.2,1.1-0.5L42.2,69.8z"/>
	<path class="st0" d="M32.8,74.6l-0.2,0.2c-0.6,0.6-0.6,1.6,0,2.3c0.3,0.3,0.7,0.5,1.1,0.5c0.4,0,0.8-0.2,1.1-0.5l0.2-0.2
		c0.6-0.6,0.6-1.6,0-2.3C34.5,74,33.5,74,32.8,74.6z"/>
	<path class="st0" d="M36.4,71.1l-0.2,0.2c-0.6,0.6-0.6,1.6,0,2.3c0.3,0.3,0.7,0.5,1.1,0.5c0.4,0,0.8-0.2,1.1-0.5l0.2-0.2
		c0.6-0.6,0.6-1.6,0-2.3S37,70.5,36.4,71.1z"/>
	<path class="st0" d="M55.3,20.8c0.9,0,1.6-0.7,1.6-1.6V19c0-0.9-0.7-1.6-1.6-1.6h-0.2c-0.9,0-1.6,0.7-1.6,1.6
		c0,0.5,0.2,0.9,0.5,1.2C54.4,20.6,54.8,20.8,55.3,20.8z"/>
	<path class="st0" d="M45.5,20.6h0.3c0.9,0,1.6-0.7,1.6-1.6s-0.7-1.6-1.6-1.6h-0.3c-0.9,0-1.6,0.7-1.6,1.6S44.6,20.6,45.5,20.6z"/>
	<path class="st0" d="M35.9,20.6h0.3c0.9,0,1.6-0.7,1.6-1.6s-0.7-1.6-1.6-1.6h-0.3c-0.9,0-1.6,0.7-1.6,1.6S35,20.6,35.9,20.6z"/>
	<path class="st0" d="M40.7,20.6H41c0.9,0,1.6-0.7,1.6-1.6s-0.7-1.6-1.6-1.6h-0.3c-0.9,0-1.6,0.7-1.6,1.6S39.8,20.6,40.7,20.6z"/>
	<path class="st0" d="M50.3,20.6h0.3c0.9,0,1.6-0.7,1.6-1.6s-0.7-1.6-1.6-1.6h-0.3c-0.9,0-1.6,0.7-1.6,1.6S49.4,20.6,50.3,20.6z"/>
	<path class="st0" d="M31.2,20.8L31.2,20.8c0.5,0,0.9-0.2,1.2-0.6c0.3-0.3,0.5-0.7,0.5-1.2c0-0.9-0.7-1.6-1.6-1.6h-0.2
		c-0.4,0-0.8,0.2-1.1,0.5s-0.5,0.7-0.5,1.1v0.2C29.6,20.1,30.3,20.8,31.2,20.8z"/>
	<path class="st0" d="M31.5,37.7c-0.9,0-1.6,0.7-1.6,1.6v0.3c0,0.9,0.7,1.6,1.6,1.6l0,0c0.9,0,1.6-0.7,1.6-1.6v-0.3
		C33.1,38.4,32.3,37.7,31.5,37.7z"/>
	<path class="st0" d="M31.4,32.6L31.4,32.6c-0.9,0-1.6,0.7-1.6,1.6v0.3c0,0.9,0.7,1.6,1.6,1.6l0,0c0.9,0,1.6-0.7,1.6-1.6v-0.3
		C33,33.3,32.3,32.6,31.4,32.6z"/>
	<path class="st0" d="M31.3,25.9L31.3,25.9c0.9,0,1.6-0.7,1.6-1.6V24c0-0.9-0.7-1.6-1.6-1.6l0,0c-0.9,0-1.6,0.7-1.6,1.6v0.3
		C29.7,25.2,30.4,25.9,31.3,25.9z"/>
	<path class="st0" d="M31.4,31L31.4,31c0.9,0,1.6-0.7,1.6-1.6v-0.3c0-0.9-0.7-1.6-1.6-1.6l0,0c-0.9,0-1.6,0.7-1.6,1.6v0.3
		C29.8,30.3,30.5,31,31.4,31z"/>
	<path class="st0" d="M31.5,42.8c-0.7,0-1.3,0.5-1.5,1.1c-0.3,0.6-0.2,1.4,0.3,1.9c0.3,0.3,0.7,0.5,1.1,0.5s0.8-0.2,1.1-0.5l0.1-0.1
		c0.3-0.3,0.5-0.7,0.5-1.2v-0.2C33.1,43.5,32.4,42.8,31.5,42.8z"/>
	<path class="st0" d="M16.7,80c-0.1,0-0.2-0.1-0.2-0.1c-0.8-0.5-1.7-0.2-2.2,0.5c-0.5,0.8-0.2,1.7,0.5,2.2c0.1,0.1,0.2,0.1,0.3,0.2
		c0.3,0.2,0.5,0.2,0.8,0.2c0.5,0,1.1-0.3,1.4-0.8C17.8,81.4,17.5,80.4,16.7,80z"/>
	<path class="st0" d="M13.3,76.7c-0.5-0.7-1.5-0.9-2.2-0.5c-0.7,0.5-1,1.5-0.5,2.2c0.1,0.1,0.1,0.2,0.2,0.3c0.3,0.5,0.8,0.7,1.3,0.7
		c0.3,0,0.6-0.1,0.9-0.3c0.7-0.5,0.9-1.5,0.4-2.2C13.4,76.8,13.3,76.8,13.3,76.7z"/>
	<path class="st0" d="M11.7,72.7c0-0.1,0-0.2,0-0.3c-0.1-0.9-0.9-1.5-1.8-1.4c-0.9,0.2-1.5,1-1.4,1.9c0,0.1,0,0.2,0.1,0.4
		c0.1,0.8,0.8,1.3,1.6,1.3c0.1,0,0.2,0,0.3,0C11.3,74.4,11.9,73.6,11.7,72.7z"/>
	<path class="st0" d="M12.9,64.8c0.5,0,0.9-0.2,1.2-0.5c0.1-0.1,0.1-0.2,0.2-0.2c0.6-0.6,0.5-1.7-0.1-2.3s-1.7-0.5-2.3,0.1
		c-0.1,0.1-0.2,0.2-0.3,0.3c-0.6,0.7-0.5,1.7,0.2,2.3C12.1,64.7,12.5,64.8,12.9,64.8z"/>
	<path class="st0" d="M21,81.3c-0.1,0-0.2,0-0.3,0c-0.9-0.1-1.7,0.5-1.8,1.4s0.5,1.7,1.4,1.8c0.1,0,0.3,0,0.4,0h0.1
		c0.8,0,1.5-0.6,1.6-1.5C22.6,82.1,21.9,81.4,21,81.3z"/>
	<path class="st0" d="M20.3,57.4c0.4,0,0.8-0.1,1.1-0.5l0.2-0.2c0.6-0.6,0.6-1.6,0-2.3c-0.6-0.6-1.6-0.6-2.3,0l-0.2,0.2
		c-0.6,0.6-0.6,1.6,0,2.3C19.5,57.3,19.9,57.4,20.3,57.4z"/>
	<path class="st0" d="M27.7,50c0.4,0,0.8-0.2,1.1-0.5l0.2-0.2c0.6-0.6,0.6-1.6,0-2.3c-0.6-0.6-1.6-0.6-2.3,0l-0.2,0.2
		c-0.6,0.6-0.6,1.6,0,2.3C26.9,49.8,27.3,50,27.7,50z"/>
	<path class="st0" d="M25.2,53.2l0.2-0.2c0.6-0.6,0.6-1.6,0-2.3c-0.6-0.6-1.6-0.6-2.3,0L22.9,51c-0.6,0.6-0.6,1.6,0,2.3
		c0.3,0.3,0.7,0.5,1.1,0.5C24.4,53.7,24.8,53.5,25.2,53.2z"/>
	<path class="st0" d="M25.5,80.7c-0.1,0-0.2,0.1-0.3,0.1c-0.8,0.3-1.3,1.2-1,2c0.2,0.7,0.9,1.1,1.5,1.1c0.2,0,0.3,0,0.5-0.1
		c0.1,0,0.2-0.1,0.3-0.1c0.8-0.3,1.2-1.2,0.9-2C27.2,80.8,26.3,80.4,25.5,80.7z"/>
	<path class="st0" d="M16.6,61.1c0.4,0,0.8-0.2,1.1-0.5l0.2-0.2c0.6-0.6,0.6-1.6,0-2.3c-0.6-0.6-1.6-0.6-2.3,0l-0.2,0.2
		c-0.6,0.6-0.6,1.6,0,2.3C15.8,61,16.2,61.1,16.6,61.1z"/>
	<path class="st0" d="M10,69.3c0.1,0,0.3,0.1,0.4,0.1c0.7,0,1.4-0.5,1.5-1.2C12,68.1,12,68,12,67.9c0.3-0.8-0.2-1.7-1.1-2
		c-0.8-0.3-1.7,0.2-2,1.1c0,0.1-0.1,0.2-0.1,0.4C8.7,68.2,9.2,69.1,10,69.3z"/>
	<path class="st0" d="M32.8,9.9c0-0.9-0.7-1.6-1.6-1.6S29.6,9,29.6,9.9v0.2c0,0.9,0.7,1.6,1.6,1.6s1.6-0.7,1.6-1.6V9.9z"/>
	<path class="st0" d="M31.2,13.3c-0.9,0-1.6,0.7-1.6,1.6v0.3c0,0.9,0.7,1.6,1.6,1.6c0.9,0,1.6-0.7,1.6-1.6v-0.3
		C32.8,14,32.1,13.3,31.2,13.3z"/>
	<path class="st0" d="M43.4,61.4c0.3,0.2,0.6,0.3,1,0.3c0.5,0,0.9-0.2,1.3-0.6c0.5-0.7,0.4-1.7-0.3-2.2c0,0-0.1,0-0.1-0.1
		c-0.7-0.6-1.7-0.5-2.2,0.2c-0.6,0.7-0.5,1.7,0.2,2.2C43.3,61.3,43.4,61.3,43.4,61.4z"/>
	<path class="st0" d="M50.2,45.8c0.2,0,0.3,0,0.5-0.1c0.1,0,0.2,0,0.3-0.1c0.8-0.3,1.3-1.1,1.1-2c-0.3-0.8-1.1-1.3-2-1.1
		c-0.1,0-0.2,0.1-0.3,0.1c-0.8,0.3-1.3,1.2-1,2C48.9,45.4,49.5,45.8,50.2,45.8z"/>
	<path class="st0" d="M41.8,50c0,0.1-0.1,0.2-0.1,0.3c-0.3,0.8,0,1.8,0.8,2.1c0.2,0.1,0.4,0.1,0.6,0.1c0.6,0,1.2-0.4,1.5-1
		c0-0.1,0.1-0.2,0.1-0.3c0.4-0.8,0-1.8-0.8-2.1S42.2,49.2,41.8,50z"/>
	<path class="st0" d="M45.1,45.5c-0.1,0.1-0.2,0.2-0.3,0.2c-0.6,0.6-0.6,1.6,0,2.3c0.3,0.3,0.7,0.5,1.1,0.5c0.4,0,0.8-0.2,1.1-0.5
		c0.1-0.1,0.1-0.1,0.2-0.2c0.6-0.6,0.7-1.6,0.1-2.3C46.7,44.9,45.7,44.9,45.1,45.5z"/>
	<path class="st0" d="M43.8,55.7c0-0.1,0-0.2,0-0.3c0-0.9-0.8-1.5-1.7-1.5s-1.6,0.8-1.5,1.7c0,0.1,0,0.3,0,0.4
		c0.1,0.8,0.8,1.5,1.6,1.5c0,0,0.1,0,0.2,0C43.3,57.4,43.9,56.6,43.8,55.7z"/>
	<path class="st0" d="M56.9,9.5c0-0.9-0.7-1.6-1.6-1.6s-1.6,0.7-1.6,1.6v0.3c0,0.9,0.7,1.6,1.6,1.6s1.6-0.7,1.6-1.6V9.5z"/>
	<path class="st0" d="M55.3,13c-0.9,0-1.6,0.7-1.6,1.6v0.3c0,0.9,0.7,1.6,1.6,1.6s1.6-0.7,1.6-1.6v-0.3C56.9,13.7,56.2,13,55.3,13z"
		/>
	<path class="st0" d="M55.1,6.6h0.2c0.9,0,1.6-0.7,1.6-1.6s-0.7-1.6-1.6-1.6h-0.2c-0.9,0-1.6,0.7-1.6,1.6S54.3,6.6,55.1,6.6z"/>
	<path class="st0" d="M35.9,6.6h0.3c0.9,0,1.6-0.7,1.6-1.6s-0.7-1.6-1.6-1.6h-0.3c-0.9,0-1.6,0.7-1.6,1.6S35,6.6,35.9,6.6z"/>
	<path class="st0" d="M50.3,6.6h0.3c0.9,0,1.6-0.7,1.6-1.6s-0.7-1.6-1.6-1.6h-0.3c-0.9,0-1.6,0.7-1.6,1.6S49.5,6.6,50.3,6.6z"/>
	<path class="st0" d="M40.7,6.6H41c0.9,0,1.6-0.7,1.6-1.6S41.9,3.4,41,3.4h-0.3c-0.9,0-1.6,0.7-1.6,1.6S39.8,6.6,40.7,6.6z"/>
	<path class="st0" d="M45.5,6.6h0.3c0.9,0,1.6-0.7,1.6-1.6s-0.7-1.6-1.6-1.6h-0.3c-0.9,0-1.6,0.7-1.6,1.6S44.6,6.6,45.5,6.6z"/>
	<path class="st0" d="M31.2,6.6h0.2C32.3,6.6,33,5.9,33,5s-0.7-1.6-1.6-1.6h-0.2c-0.9,0-1.6,0.7-1.6,1.6S30.3,6.6,31.2,6.6z"/>
</g>
</svg>
