<?xml version="1.0" encoding="utf-8"?>
<!-- Generator: Adobe Illustrator 22.0.0, SVG Export Plug-In . SVG Version: 6.00 Build 0)  -->
<svg version="1.1" id="Layer_1" xmlns="http://www.w3.org/2000/svg" xmlns:xlink="http://www.w3.org/1999/xlink" x="0px" y="0px"
	 viewBox="0 0 512 514" style="enable-background:new 0 0 512 514;" xml:space="preserve">
<style type="text/css">
	.st0{fill:#FFFFFF;}
</style>
<path class="st0" d="M28,200h16.8L76,488.9c0.4,4.1,3.9,7.1,8,7.1h136c4.2,0,7.6-3.2,8-7.4L251.4,200H268c4.4,0,8-3.6,8-8v-32
	c0-4.4-3.6-8-8-8h-11.1l-13.8-27.6c-1.4-2.7-4.1-4.4-7.2-4.4h-80V46.4l65.7-14.6l-3.5-15.6l-72,16c-3.7,0.8-6.3,4.1-6.3,7.8v80H60
	c-3,0-5.8,1.7-7.2,4.4L39,152H28c-4.4,0-8,3.6-8,8v32C20,196.4,23.6,200,28,200z M212.6,480H91.2L60.9,200h174.4L212.6,480z
	 M64.9,136H231l8,16H56.9L64.9,136z M36,168h224v16H36V168z"/>
<path class="st0" d="M148,344c26.5,0,48-21.5,48-48s-21.5-48-48-48s-48,21.5-48,48C100,322.5,121.5,344,148,344z M148,264
	c17.7,0,32,14.3,32,32s-14.3,32-32,32s-32-14.3-32-32C116,278.3,130.3,264,148,264z"/>
<rect x="100" y="376" class="st0" width="96" height="16"/>
<path class="st0" d="M356,192c1.9,0,3.7-0.2,5.6-0.7c1.4,1.6,2.9,3.1,4.7,4.3c-6.6-2.9-14.1-2.6-20.5,0.7c-2.1-1.4-4.3-2.5-6.7-3.3
	c-3.8-12.7-17.1-20-29.8-16.2c-12.3,3.6-19.6,16.3-16.5,28.7c-8.1,6.7-10.9,17.9-6.8,27.7c-12.6,4.1-19.4,17.7-15.3,30.3
	c1,3.2,2.7,6.1,4.9,8.5c-4.4,0.3-7.8,4-7.5,8.4c0,0.2,0,0.3,0,0.5l24,208c0.5,4,3.9,7.1,7.9,7.1h160c4.1,0,7.5-3,7.9-7.1l24-208
	c0.5-4.4-2.6-8.4-7-8.9c-0.3,0-0.6-0.1-0.9-0.1h-2.8c2.2-6.1,1.8-12.9-1.1-18.7c0.5-2.4,0.7-5,0.5-7.5c11.3-6.9,14.8-21.7,7.9-33
	c-6.2-10.1-18.8-14.2-29.7-9.6c0.3-1.6,0.5-3.2,0.5-4.9c0-5.6-2-11.1-5.6-15.4c12.7-3.9,19.8-17.3,15.9-29.9
	c-1.4-4.5-4-8.5-7.6-11.4c3.1-12.9-4.7-25.9-17.6-29c-12.4-3-25,4.2-28.7,16.5c-12.7,3.9-19.8,17.3-16,29.9
	c2.2,7.1,7.5,12.8,14.4,15.4c-3.5-0.2-6.9,0.3-10.2,1.6c0-7.1-3.2-13.9-8.6-18.4c3.1-12.9-4.7-25.9-17.6-29
	c-12.4-3-25,4.2-28.7,16.5c-12.7,3.8-19.9,17.2-16,29.9C336.1,185.1,345.4,192,356,192z M340.7,225.7c4.4,0,8-3.6,8-8
	c0-4.4,3.6-8,8-8s8,3.6,8,8c0,1.6-0.5,3.1-1.4,4.5c-2.5,3.7-1.5,8.6,2.2,11.1c0.6,0.4,1.2,0.7,1.8,0.9c4.2,1.5,6.4,6,4.9,10.2
	c-1.5,4.2-6,6.4-10.2,4.9c-2.3-0.8-4.1-2.6-4.9-4.9c-1.5-4.2-6-6.4-10.2-4.9c-0.6,0.2-1.3,0.5-1.8,0.9c-3.7,2.5-8.6,1.5-11.1-2.2
	c-2.5-3.7-1.5-8.6,2.2-11.1C337.5,226.1,339.1,225.7,340.7,225.7L340.7,225.7z M333.9,272c3.6-4,5.7-9,6.1-14.4c0.3,0,0.5,0,0.8,0
	c1.9,0,3.7-0.2,5.6-0.7c7.4,9,20.3,11.3,30.4,5.4c1.2,3.4,3.1,6.6,5.7,9.1c0.1,0.1,0.3,0.3,0.4,0.4L333.9,272z M356,288v48.6
	c-8.7,1.2-16.9,4.5-24,9.7V288H356z M305.3,216.5c4.2-1.5,6.4-6,4.9-10.2c-0.2-0.6-0.5-1.3-0.9-1.8c-0.9-1.3-1.4-2.9-1.3-4.4
	c0-4.4,3.6-8,8-8s8,3.6,8,8s3.6,8,8,8c0.9,0,1.7,0.1,2.6,0.4c-0.3,0.7-0.6,1.5-0.8,2.3c-6,1.8-11,5.9-14,11.4
	c-1.9,0.9-3.4,2.6-4.2,4.6c-1.5,4.2-6,6.4-10.2,4.9c-4.2-1.5-6.4-6-4.9-10.2C301.2,219.1,303,217.3,305.3,216.5L305.3,216.5z
	 M316,480h-8.9L285,288h31V480z M321.6,261.7c-1.1,1.1-2.5,1.9-4.1,2.2c-3.9,0.8-6.6,4.2-6.4,8.1h-12.8c0.2-3.9-2.6-7.4-6.4-8.1
	c-4.3-0.9-7.1-5.1-6.3-9.4c0.3-1.6,1.1-3,2.2-4.1c3.1-3.1,8.2-3.1,11.3,0c1.5,1.5,3.5,2.3,5.7,2.3l0,0c2.1,0,4.2-0.8,5.7-2.3
	c3-3.2,8.1-3.4,11.3-0.4c3.2,3,3.4,8.1,0.4,11.3C321.9,261.4,321.8,261.5,321.6,261.7L321.6,261.7z M356,480h-24v-74.2
	c7.1,5.2,15.3,8.5,24,9.7V480z M396,480h-24v-64.6c8.7-1.2,16.9-4.5,24-9.7V480z M364,400c-17.6,0-32-10.8-32-24s14.4-24,32-24
	s32,10.8,32,24S381.6,400,364,400z M396,346.2c-7.1-5.2-15.3-8.5-24-9.7V288h24V346.2z M420.8,480H412V288h31L420.8,480z M428,264
	c0-3.7,2.6-6.9,6.2-7.8c3.4,9.5,12.4,15.8,22.5,15.8c1.5,0,3-0.1,4.5-0.4c-0.3,0.1-0.7,0.2-1,0.3c-0.2,0-0.4,0.1-0.6,0.1H435
	c-0.2-0.1-0.4-0.1-0.6-0.2C430.7,271.1,428,267.8,428,264z M452.8,480H437l22.2-192H475L452.8,480z M462.3,219.7
	c3.1-3.1,8.2-3.1,11.3,0c3.1,3.1,3.1,8.2,0,11.3c-1.1,1.1-2.6,1.9-4.1,2.2c-4.3,0.8-7.2,5.1-6.3,9.4c0.1,0.7,0.3,1.3,0.6,1.9
	c1,2.1,1.1,4.5,0.1,6.6c-0.4,0.9-1,1.8-1.7,2.5c-3.1,3.1-8.2,3.1-11.3,0c-2.4-2.4-3-6.1-1.5-9.1c1.9-4,0.2-8.7-3.7-10.7
	c-0.4-0.2-0.8-0.3-1.2-0.5c2.6-4.4,3.8-9.5,3.4-14.6c0.3-0.2,0.6-0.4,1-0.6c0.8,0.4,1.6,0.9,2.2,1.6
	C454.1,222.8,459.2,222.8,462.3,219.7C462.3,219.7,462.3,219.7,462.3,219.7L462.3,219.7z M422.7,144c4.4,0,8-3.6,8-8
	c0-4.4,3.6-8,8-8c4.4,0,8,3.6,8,8c0,1.6-0.5,3.1-1.4,4.5c-2.5,3.7-1.5,8.6,2.2,11.1c0.6,0.4,1.2,0.7,1.8,0.9c4.2,1.5,6.4,6,4.9,10.2
	c-1.5,4.2-6,6.4-10.2,4.9c-2.3-0.8-4.1-2.6-4.9-4.9c-1.5-4.2-6-6.4-10.2-4.9c-0.6,0.2-1.3,0.5-1.8,0.9c-3.7,2.5-8.6,1.5-11.1-2.2
	c-2.5-3.7-1.5-8.6,2.2-11.1C419.6,144.5,421.1,144,422.7,144z M428.3,175.4c-1.5,0.4-2.9,1-4.3,1.8c-0.9-0.5-1.8-0.9-2.7-1.2
	c0.5,0,1,0,1.4,0C424.6,176,426.4,175.8,428.3,175.4L428.3,175.4z M407,192.7c3.1-3.1,8.2-3.1,11.3,0c3.1,3.1,8.2,3.1,11.3,0
	c0,0,0,0,0,0c3.1-3.1,8.2-3.1,11.3,0c3.1,3.1,3.1,8.2,0,11.3c-1.1,1.1-2.6,1.9-4.1,2.2c-4.3,0.8-7.2,5.1-6.3,9.4
	c0.1,0.7,0.3,1.3,0.6,1.9c1.9,4,0.3,8.8-3.7,10.7c-4,1.9-8.8,0.3-10.7-3.7c-1.1-2.2-1.1-4.8,0-6.9c1.9-4,0.2-8.8-3.7-10.7
	c-0.6-0.3-1.3-0.5-1.9-0.6c-4.3-0.9-7.1-5.1-6.3-9.4C405.1,195.2,405.9,193.8,407,192.7L407,192.7z M399.3,228.7L399.3,228.7
	c0.6,0,1.3-0.1,1.9-0.2c1.2,3.6,3.2,6.8,5.8,9.5c1,1,2,1.8,3.1,2.6c-3.9,1.9-5.5,6.7-3.6,10.6c1.9,4,0.3,8.8-3.7,10.7
	c-4,1.9-8.8,0.3-10.7-3.7c-1.1-2.2-1.1-4.7,0-6.9c1.9-3.9,0.3-8.5-3.5-10.5c-0.2-5.4-2.3-10.6-5.9-14.7c3.2-2.7,7.9-2.5,10.9,0.4
	C395.1,227.8,397.2,228.7,399.3,228.7L399.3,228.7z M390.8,208.2c-0.9-0.1-1.9-0.2-2.8-0.2c-3,0-5.9,0.5-8.7,1.6
	c-1.7-4.7-4.8-8.8-8.9-11.6c5.8,2.6,12.4,2.7,18.3,0.4C388.7,201.7,389.4,205.1,390.8,208.2L390.8,208.2z M356,160c4.4,0,8-3.6,8-8
	c0-4.4,3.6-8,8-8c4.4,0,8,3.6,8,8c0,1.6-0.5,3.1-1.4,4.5c-2.5,3.7-1.5,8.6,2.2,11.1c0.6,0.4,1.2,0.7,1.8,0.9c4.2,1.5,6.4,6,4.9,10.2
	c-1.5,4.2-6,6.4-10.2,4.9c-2.3-0.8-4.1-2.6-4.9-4.9c-1.5-4.2-6-6.4-10.2-4.9c-0.6,0.2-1.3,0.5-1.8,0.9c-3.7,2.5-8.6,1.5-11.1-2.2
	c-2.5-3.7-1.5-8.6,2.2-11.1C352.8,160.5,354.4,160,356,160z"/>
</svg>
