<svg xmlns="http://www.w3.org/2000/svg" width="18.682" height="16.649" viewBox="0 0 18.682 16.649"><g transform="translate(-7.05 -39.934)"><path d="M23.009,39.937q-3.884-.129-5.262,4.517a3.411,3.411,0,0,1,1.383-.316q1.425,0,1.258,1.649a7.647,7.647,0,0,1-1.258,2.907Q17.955,50.6,17.368,50.6q-.756,0-1.384-2.942-.212-.863-.755-4.411-.5-3.288-2.685-3.072a6.138,6.138,0,0,0-2.768,1.729q-1.342,1.253-2.726,2.5l.879,1.167a5.734,5.734,0,0,1,1.466-.906q.961,0,1.8,3.107l1.508,5.7q1.129,3.107,2.763,3.107,2.637,0,6.447-5.1,3.685-4.884,3.81-7.7Q25.888,40.024,23.009,39.937Z" fill="#fff"/><path d="M25.723,43.785q-.125,2.811-3.81,7.7-3.81,5.1-6.447,5.1-1.633,0-2.763-3.107l-1.508-5.7q-.839-3.105-1.8-3.107a5.734,5.734,0,0,0-1.466.906L7.05,44.412q1.383-1.252,2.726-2.5a6.138,6.138,0,0,1,2.768-1.729q2.181-.216,2.685,3.072.545,3.547.755,4.411.629,2.943,1.384,2.942.587,0,1.762-1.909a7.647,7.647,0,0,0,1.258-2.907q.167-1.647-1.258-1.649a3.411,3.411,0,0,0-1.383.316q1.377-4.648,5.262-4.517Q25.888,40.024,25.723,43.785Z" fill="#fff"/></g></svg>