<svg xmlns="http://www.w3.org/2000/svg" width="18.324" height="18.983" viewBox="0 0 18.324 18.983"><g transform="translate(-118.575 -38.282)"><path d="M127.776,38.282a9.281,9.281,0,0,0-9.124,9.406,9.614,9.614,0,0,0,1.218,4.7l-1.294,4.875,4.837-1.308a8.9,8.9,0,0,0,4.36,1.145h0A9.282,9.282,0,0,0,136.9,47.7a9.5,9.5,0,0,0-2.67-6.655A8.928,8.928,0,0,0,127.776,38.282Zm0,17.232h0a7.4,7.4,0,0,1-3.859-1.09l-.277-.169-2.87.776.766-2.885-.18-.3a7.976,7.976,0,0,1-1.159-4.161,7.715,7.715,0,0,1,7.587-7.818,7.419,7.419,0,0,1,5.361,2.293A7.9,7.9,0,0,1,135.36,47.7,7.715,7.715,0,0,1,127.776,55.514Z" fill="#fff"/><path d="M131.936,49.658c-.228-.118-1.349-.686-1.558-.765s-.361-.118-.513.118-.589.765-.722.922-.266.177-.494.059a6.19,6.19,0,0,1-1.833-1.167,7.051,7.051,0,0,1-1.268-1.628.348.348,0,0,1,.1-.479c.1-.105.228-.275.342-.412a1.616,1.616,0,0,0,.228-.392.445.445,0,0,0-.019-.412c-.057-.118-.513-1.275-.7-1.745s-.373-.4-.513-.4-.285-.008-.437-.008a.828.828,0,0,0-.608.294,2.671,2.671,0,0,0-.8,1.961,4.643,4.643,0,0,0,.931,2.431,10.287,10.287,0,0,0,3.895,3.549,12.814,12.814,0,0,0,1.3.5,3.035,3.035,0,0,0,1.436.093,2.351,2.351,0,0,0,1.539-1.118,2.026,2.026,0,0,0,.133-1.118C132.316,49.835,132.164,49.776,131.936,49.658Z" fill="#fff"/></g></svg>