<svg xmlns="http://www.w3.org/2000/svg" width="228.871" height="109.229" viewBox="0 0 228.871 109.229">
  <g id="Grupo_1211" data-name="Grupo 1211" transform="translate(-111.718 -1293.595)">
    <path id="Caminho_1355" data-name="Caminho 1355" d="M4012.157,2196.847a36.273,36.273,0,0,1,10.912.647,12.423,12.423,0,0,1,6.058,3.376,8.053,8.053,0,0,1,1.25,9.877,18.345,18.345,0,0,1-2.956,3.458,24.273,24.273,0,0,1-10.143,5.242,32.357,32.357,0,0,1-16.069.787,15.73,15.73,0,0,1-8.2-4.3c-1.388-1.419-2.162-2.923-1.33-4.886.844-1.994,2.548-2.7,4.542-2.876a5.158,5.158,0,0,1,4.209,1.76,8.7,8.7,0,0,0,2.756,1.757,15.314,15.314,0,0,0,7.857.641,17.708,17.708,0,0,0,8.75-3.1,11.383,11.383,0,0,0,1.578-1.423c.606-.667.527-1.13-.24-1.612a9.989,9.989,0,0,0-4.807-1.4c-2.168-.125-4.35.038-6.526.026-3.076-.016-6.162.053-9.226-.158a13.066,13.066,0,0,1-8.965-4.126,8.138,8.138,0,0,1-.888-9.611,15.377,15.377,0,0,1,4.458-4.521,31.3,31.3,0,0,1,15.059-5.182,26.252,26.252,0,0,1,10.716.781c2.657.828,5.162,1.939,6.946,4.262a4.077,4.077,0,0,1-1.208,5.949c-2.149,1.189-5.159,1.366-7.079-1.046a3.922,3.922,0,0,0-1.563-1.006,13.917,13.917,0,0,0-6.581-.926c-3.63.3-7.162.924-10.2,3.133a11.714,11.714,0,0,0-1.6,1.4c-.724.762-.648,1.341.313,1.792a17.224,17.224,0,0,0,2.817.985c2.722.737,5.5.292,8.25.293Z" transform="translate(-3691.73 -844.831)" fill="#fff"/>
    <path id="Caminho_1356" data-name="Caminho 1356" d="M1146.646,2665.417c-1.945.285-3.758.594-5.582.8a26.786,26.786,0,0,1-3.923.217,3.236,3.236,0,0,1-3.309-2.423,4.024,4.024,0,0,1,1.237-4.29,8.012,8.012,0,0,1,3.963-1.645c3.825-.591,7.652-1.169,11.487-1.683a8.5,8.5,0,0,1,2.663.1,3.507,3.507,0,0,1,3.014,3.454c.2,3.047.395,6.1.556,9.145a5.512,5.512,0,0,1-1.695,4.2,27.287,27.287,0,0,1-11.345,7.192,25.9,25.9,0,0,1-15.84.478,18.078,18.078,0,0,1-10.373-7.845,16.385,16.385,0,0,1-2.021-11.958c1.068-5.646,4.369-9.775,8.784-13.135a26.872,26.872,0,0,1,21.067-5.238,19.043,19.043,0,0,1,8.159,3.429,3.647,3.647,0,0,1,.14,5.707c-2.16,1.856-4.211,2.294-6.669.893a14.5,14.5,0,0,0-6.119-2.14,15.026,15.026,0,0,0-14.077,6.644,10.5,10.5,0,0,0-2.014,7.524c.35,3.195,2.272,5.273,4.875,6.88,5.12,3.161,12.4,2.069,16.783-2.01a1.152,1.152,0,0,0,.41-.7C1146.8,2667.866,1146.715,2666.714,1146.646,2665.417Z" transform="translate(-955.264 -1284.107)" fill="#fff"/>
    <path id="Caminho_1357" data-name="Caminho 1357" d="M2076.2,2534.825c-10.077.164-15.8-2.326-20.189-7.495a15.406,15.406,0,0,1-3.421-9.256,18.122,18.122,0,0,1,4.533-13.254c6.752-7.886,15.42-10.869,25.579-9.5a19.3,19.3,0,0,1,12.641,7.287,15.851,15.851,0,0,1,3.38,9.842,18.9,18.9,0,0,1-5.151,13.279C2088.073,2531.9,2081.054,2534.637,2076.2,2534.825Zm.811-31.667c-.237,0-.474-.015-.71,0-6.271.457-10.836,3.473-13.438,9.213a9.2,9.2,0,0,0,2.636,11c4.389,3.564,9.335,4,14.428,2.054a14.118,14.118,0,0,0,8.717-8.9,8.7,8.7,0,0,0-.774-7.748C2085.346,2504.852,2081.514,2503.315,2077.01,2503.158Z" transform="translate(-1847.689 -1143.745)" fill="#fff"/>
    <path id="Caminho_1358" data-name="Caminho 1358" d="M3094.533,1416.591c-.335-3.519-.651-6.843-.97-10.167-.229-2.384-.481-4.766-.69-7.152a4.89,4.89,0,0,1,4.974-5.252c2.856,0,4.4,1.375,4.685,4.225.922,9.139,1.824,18.28,2.758,27.418.214,2.093-.206,3.929-2.089,5.086a5.292,5.292,0,0,1-5.906.068,37.04,37.04,0,0,1-3.612-2.917q-8.648-7.195-17.292-14.4c-.158-.131-.326-.249-.65-.493.033.546.048.943.083,1.339.466,5.323.967,10.643,1.393,15.969a5.18,5.18,0,0,1-7.4,5.136,4,4,0,0,1-2.268-3.628c-.4-4.139-.714-8.286-1.062-12.429-.438-5.219-.864-10.439-1.317-15.657a4.879,4.879,0,0,1,5.06-5.592,6.03,6.03,0,0,1,4.086,1.6q5.077,4.265,10.176,8.5,4.759,3.968,9.527,7.927C3094.135,1416.273,3094.255,1416.366,3094.533,1416.591Z" transform="translate(-2811.683 -95.604)" fill="#fff"/>
    <path id="Caminho_1359" data-name="Caminho 1359" d="M122.045,2746.371l40.03-5.958,4.148,39.793Z" transform="translate(-9.831 -1377.382)" fill="#039"/>
    <path id="Caminho_1360" data-name="Caminho 1360" d="M3960.014,1293.6l44.182,34.67c-2.255.341-4.349.669-6.447.974q-15.666,2.277-31.333,4.546c-1.345.2-1.351.2-1.522-1.164q-2.226-17.825-4.449-35.651C3960.313,1295.908,3960.174,1294.847,3960.014,1293.6Z" transform="translate(-3663.606 0)" fill="#039"/>
    <path id="Caminho_1361" data-name="Caminho 1361" d="M141.956,1815.745q-.2-4.695-.4-9.389a5.344,5.344,0,0,1,4.923-5.877,12.707,12.707,0,0,1,1.961-.13,4,4,0,0,1,4.211,4.014c.32,6.415.744,12.831.8,19.25.054,5.681-2.563,10.214-7.03,13.675a27.768,27.768,0,0,1-18.785,5.923A18.711,18.711,0,0,1,115,1837.857a11.019,11.019,0,0,1-3.2-6.042,4.438,4.438,0,0,1,1.864-4.5,7.113,7.113,0,0,1,5.929-1.195,3.942,3.942,0,0,1,3.112,3.19,6.453,6.453,0,0,0,4.073,4.509,12.132,12.132,0,0,0,14.562-4.775,6.722,6.722,0,0,0,.984-4.148q-.183-4.577-.375-9.153Z" transform="translate(0 -482.432)" fill="#fff"/>
    <path id="Caminho_1362" data-name="Caminho 1362" d="M2058.208,1605.334l-2.1,4.266q-1.672,3.4-3.345,6.8-3.511,7.1-7.034,14.2a5.676,5.676,0,0,1-7.629,2.036,3.349,3.349,0,0,1-1.046-4.286c.661-1.518,1.427-2.991,2.167-4.474q5.409-10.844,10.834-21.681c1.109-2.211,2.209-4.429,3.415-6.587,1.439-2.577,6.058-4.076,8.575-.786,2.046,2.675,4.063,5.372,6.1,8.054,4.506,5.93,8.987,11.88,13.548,17.768,1.146,1.48,1.635,2.925.754,4.642a4.954,4.954,0,0,1-4.489,2.592c-2.032.136-3.439-.954-4.583-2.468q-7.278-9.632-14.537-19.278C2058.654,1605.892,2058.46,1605.654,2058.208,1605.334Z" transform="translate(-1832.597 -284.977)" fill="#fff"/>
    <path id="Caminho_1363" data-name="Caminho 1363" d="M3147.083,2937.655a15.724,15.724,0,0,1-1.855-.305c-3-.829-3.3-4.713-1.32-6.509a7.135,7.135,0,0,1,3.845-1.693c8.952-1.351,17.906-2.689,26.873-3.937a9.168,9.168,0,0,1,3.79.34c2.679.807,2.955,4.692.978,6.376a8.047,8.047,0,0,1-4.177,1.716q-13.348,1.992-26.7,3.93C3148.1,2937.635,3147.675,2937.623,3147.083,2937.655Z" transform="translate(-2885.47 -1553.244)" fill="#fff"/>
    <path id="Caminho_1364" data-name="Caminho 1364" d="M3094.676,2311.05a12.041,12.041,0,0,1-1.909-.33,3.329,3.329,0,0,1-2.479-3.365,3.908,3.908,0,0,1,2.631-3.849,23.192,23.192,0,0,1,4.346-1.052q11.9-1.821,23.809-3.531a14.476,14.476,0,0,1,3.6-.08,3.252,3.252,0,0,1,3.027,2.591,3.748,3.748,0,0,1-1.167,3.94,7.29,7.29,0,0,1-3.866,1.64q-13.231,1.99-26.469,3.923C3095.737,2311.005,3095.262,2311.008,3094.676,2311.05Z" transform="translate(-2835.62 -956.93)" fill="#fff"/>
    <path id="Caminho_1365" data-name="Caminho 1365" d="M1132.106,2331.2c-.474-.045-.895-.071-1.311-.127-3.143-.424-3.754-3.542-2.422-5.622a5.806,5.806,0,0,1,4.264-2.432q13.221-2.05,26.466-3.947a9.17,9.17,0,0,1,3.05.121,3.046,3.046,0,0,1,2.54,2.6,3.805,3.805,0,0,1-1.274,3.771,7.549,7.549,0,0,1-3.951,1.656q-13.115,1.968-26.237,3.9C1132.842,2331.172,1132.446,2331.178,1132.106,2331.2Z" transform="translate(-967.232 -976.193)" fill="#fff"/>
    <path id="Caminho_1366" data-name="Caminho 1366" d="M1105.193,1726.111a14.318,14.318,0,0,1-1.735-.3,2.945,2.945,0,0,1-2.231-2.5,3.81,3.81,0,0,1,1.33-3.683,8.984,8.984,0,0,1,4.673-1.714c6.913-1.031,13.822-2.087,20.738-3.1a54.726,54.726,0,0,1,5.862-.665c2.224-.084,3.509.931,3.873,2.712a4,4,0,0,1-2.5,4.447,12.318,12.318,0,0,1-2.862.848q-12.639,1.941-25.29,3.8C1106.431,1726.046,1105.8,1726.062,1105.193,1726.111Z" transform="translate(-941.967 -400.364)" fill="#fff"/>
    <path id="Caminho_1367" data-name="Caminho 1367" d="M3165.193,2621.419a7.582,7.582,0,0,1-.808-.053,3.732,3.732,0,0,1-3.392-2.933,4.094,4.094,0,0,1,1.917-4.254,9.325,9.325,0,0,1,2.994-1.119q11.377-1.77,22.78-3.375a8.517,8.517,0,0,1,3.036.216,3.31,3.31,0,0,1,2.57,2.961,3.544,3.544,0,0,1-1.487,3.721,8.857,8.857,0,0,1-3.283,1.393c-7.664,1.211-15.346,2.311-23.024,3.437A10.422,10.422,0,0,1,3165.193,2621.419Z" transform="translate(-2902.867 -1252.872)" fill="#fff"/>
    <path id="Caminho_1368" data-name="Caminho 1368" d="M1163.022,2026.919a18.841,18.841,0,0,1-2.057-.451,3.262,3.262,0,0,1-1.971-3.821,4.209,4.209,0,0,1,3.294-3.42c2.082-.495,4.2-.874,6.314-1.2q8.842-1.358,17.7-2.605a7.678,7.678,0,0,1,2.637.166,3.059,3.059,0,0,1,2.447,2.76,3.566,3.566,0,0,1-1.552,3.711,8.929,8.929,0,0,1-3.294,1.364c-7.378,1.176-14.772,2.243-22.163,3.338-.439.065-.889.058-1.333.084Z" transform="translate(-996.936 -687.136)" fill="#fff"/>
  </g>
</svg>
